<svg xmlns="http://www.w3.org/2000/svg" xmlns:xlink="http://www.w3.org/1999/xlink" width="500" zoomAndPan="magnify" viewBox="0 0 375 374.999991" height="500" preserveAspectRatio="xMidYMid meet" version="1.0"><defs><g/><clipPath id="id1"><path d="M 73 146 L 171 146 L 171 312.898438 L 73 312.898438 Z M 73 146 " clip-rule="nonzero"/></clipPath><clipPath id="id2"><path d="M 153.316406 143.886719 L 188.425781 143.886719 L 188.425781 312.632812 L 153.316406 312.632812 Z M 153.316406 143.886719 " clip-rule="nonzero"/></clipPath></defs><path fill="#e44650" d="M 248.449219 287.789062 C 247.757812 287.789062 247.410156 287.558594 246.949219 286.867188 C 237.734375 270.859375 200.992188 263.949219 168.851562 263.949219 C 136.484375 263.949219 99.96875 271.203125 90.753906 286.867188 C 90.292969 287.789062 89.257812 287.90625 88.566406 287.558594 C 88.105469 287.328125 87.644531 286.636719 87.644531 286.0625 C 87.644531 285.832031 87.644531 285.371094 87.875 285.140625 C 97.089844 269.128906 84.765625 233.3125 68.410156 204.863281 C 48.941406 171.808594 25.328125 149.347656 9.546875 149.347656 C 8.625 149.347656 7.820312 148.65625 7.820312 147.621094 C 7.820312 146.582031 8.742188 146.125 9.546875 146.125 C 25.328125 146.125 48.941406 123.546875 68.179688 90.378906 C 84.535156 62.160156 96.859375 26.457031 87.644531 10.332031 C 87.414062 10.101562 87.414062 9.871094 87.414062 9.410156 C 87.414062 8.71875 87.644531 8.375 88.335938 7.914062 C 89.257812 7.453125 90.0625 7.683594 90.523438 8.601562 C 99.738281 24.613281 136.484375 31.523438 168.621094 31.523438 C 200.992188 31.523438 237.503906 24.265625 246.71875 8.601562 C 247.179688 7.683594 248.21875 7.566406 248.910156 7.914062 C 249.371094 8.144531 249.832031 8.832031 249.832031 9.410156 C 249.832031 9.640625 249.832031 10.101562 249.601562 10.332031 C 240.386719 26.339844 252.824219 62.390625 269.296875 90.839844 C 288.765625 124.46875 312.378906 147.042969 328.160156 147.042969 C 329.078125 147.042969 329.886719 147.734375 329.886719 148.773438 C 329.886719 149.808594 329.195312 150.5 328.160156 150.5 C 309.726562 150.5 285.078125 178.949219 268.605469 207.167969 C 249.371094 240.453125 241.652344 272.125 249.601562 285.714844 C 249.832031 285.945312 249.832031 286.175781 249.832031 286.636719 C 249.832031 287.328125 249.601562 287.675781 248.910156 288.132812 C 248.910156 287.789062 248.679688 287.789062 248.449219 287.789062 Z M 18.300781 147.851562 C 37.078125 154.644531 57.695312 180.90625 71.058594 203.597656 C 91.445312 238.609375 95.9375 264.179688 93.40625 278.804688 C 108.726562 265.675781 142.015625 260.609375 168.851562 260.609375 C 195.578125 260.609375 228.75 265.445312 244.070312 278.574219 C 240.617188 258.878906 252.824219 228.011719 266.1875 205.09375 C 286.34375 170.078125 306.273438 153.496094 319.980469 148.65625 C 301.203125 142.09375 280.125 115.371094 266.878906 92.453125 C 246.488281 57.207031 241.765625 31.636719 244.300781 17.011719 C 228.980469 30.140625 195.691406 35.210938 168.851562 35.210938 C 142.128906 34.980469 108.957031 30.140625 93.636719 17.011719 C 97.320312 36.9375 84.652344 68.609375 71.058594 91.761719 C 57.925781 114.796875 37.191406 141.054688 18.300781 147.851562 Z M 18.300781 147.851562 " fill-opacity="1" fill-rule="nonzero"/><path fill="#e44650" d="M 232.089844 259.339844 C 231.398438 259.339844 231.054688 259.109375 230.59375 258.417969 C 224.257812 247.476562 199.492188 240.222656 168.738281 240.222656 C 137.984375 240.222656 113.21875 247.476562 106.882812 258.417969 C 106.421875 259.339844 105.382812 259.457031 104.691406 259.109375 C 104.234375 258.878906 103.773438 258.1875 103.773438 257.613281 C 103.773438 257.382812 103.773438 256.921875 104.003906 256.691406 C 110.335938 245.75 104.003906 220.410156 88.683594 193.691406 C 73.363281 167.199219 54.816406 149.234375 42.261719 149.234375 C 41.339844 149.234375 40.535156 148.542969 40.535156 147.503906 C 40.535156 146.46875 41.222656 145.777344 42.261719 145.777344 C 54.703125 145.777344 73.363281 128.039062 88.683594 101.320312 C 104.234375 74.367188 110.335938 49.261719 104.003906 38.320312 C 103.773438 38.089844 103.773438 37.859375 103.773438 37.398438 C 103.773438 36.707031 104.003906 36.359375 104.691406 35.898438 C 105.613281 35.4375 106.421875 35.667969 106.882812 36.589844 C 113.21875 47.53125 137.984375 54.789062 168.738281 54.789062 C 199.492188 54.789062 224.257812 47.53125 230.59375 36.589844 C 231.054688 35.667969 232.089844 35.554688 232.78125 35.898438 C 233.242188 36.128906 233.703125 36.820312 233.703125 37.398438 C 233.703125 37.628906 233.703125 38.089844 233.472656 38.320312 C 227.136719 49.261719 233.472656 75.058594 249.253906 102.242188 C 264.574219 128.730469 283.121094 146.46875 295.445312 146.46875 C 296.367188 146.46875 297.171875 147.160156 297.171875 148.195312 C 297.171875 149.234375 296.480469 149.925781 295.445312 149.925781 C 283.003906 149.925781 264.113281 167.890625 248.910156 194.382812 C 233.703125 220.871094 227.484375 245.75 233.820312 256.691406 C 234.050781 256.921875 234.050781 257.152344 234.050781 257.613281 C 234.050781 258.304688 233.820312 258.648438 233.128906 259.109375 C 232.78125 259.109375 232.320312 259.339844 232.089844 259.339844 Z M 168.851562 236.996094 C 189.585938 236.996094 215.621094 240.683594 228.175781 250.816406 C 225.757812 235.039062 235.664062 210.738281 245.914062 193.113281 C 256.394531 175.148438 272.636719 154.414062 287.496094 148.65625 C 272.867188 142.78125 256.625 122.398438 246.375 104.429688 C 235.664062 86 225.640625 61.125 228.175781 44.882812 C 215.734375 54.902344 189.703125 58.703125 168.851562 58.703125 C 148.003906 58.703125 122.085938 55.019531 109.53125 44.882812 C 111.949219 60.894531 102.042969 85.308594 91.5625 103.507812 C 81.078125 121.246094 65.070312 141.746094 50.210938 147.734375 C 65.070312 153.609375 81.308594 174.226562 91.5625 192.195312 C 102.042969 210.390625 111.949219 234.808594 109.53125 250.816406 C 122.085938 240.796875 148.121094 236.996094 168.851562 236.996094 Z M 168.851562 236.996094 " fill-opacity="1" fill-rule="nonzero"/><path fill="#e44650" d="M 215.621094 232.390625 C 214.929688 232.390625 214.582031 232.160156 214.121094 231.46875 C 209.515625 223.40625 191.316406 218.109375 168.621094 218.109375 C 145.929688 218.109375 127.730469 223.519531 123.125 231.46875 C 122.664062 232.390625 121.625 232.503906 120.933594 232.160156 C 120.472656 231.929688 120.011719 231.238281 120.011719 230.660156 C 120.011719 230.433594 120.011719 229.972656 120.242188 229.742188 C 124.851562 221.679688 120.011719 201.753906 108.265625 181.597656 C 97.089844 162.363281 83.730469 149.464844 74.746094 149.464844 C 73.824219 149.464844 73.015625 148.773438 73.015625 147.734375 C 73.015625 146.699219 73.707031 146.007812 74.746094 146.007812 C 83.730469 146.007812 97.550781 132.878906 108.609375 113.644531 C 120.242188 93.71875 124.851562 75.175781 120.242188 67.113281 C 120.242188 66.882812 120.242188 66.652344 120.242188 66.421875 C 120.242188 65.730469 120.472656 65.386719 121.164062 64.925781 C 122.085938 64.464844 122.894531 64.695312 123.355469 65.617188 C 127.960938 73.675781 146.160156 78.976562 168.851562 78.976562 C 191.546875 78.976562 209.746094 73.5625 214.351562 65.617188 C 214.8125 64.695312 215.851562 64.578125 216.542969 64.925781 C 217 65.15625 217.460938 65.847656 217.460938 66.421875 C 217.460938 66.652344 217.460938 67.113281 217.230469 67.34375 C 212.625 75.40625 217.230469 94.410156 229.097656 114.566406 C 240.269531 133.800781 253.863281 146.929688 262.730469 146.929688 C 263.652344 146.929688 264.460938 147.621094 264.460938 148.65625 C 264.460938 149.695312 263.769531 150.382812 262.730469 150.382812 C 253.746094 150.382812 240.386719 163.285156 229.097656 182.75 C 217.460938 202.675781 212.738281 222.371094 217.230469 230.433594 C 217.460938 230.664062 217.460938 230.890625 217.460938 231.351562 C 217.460938 232.042969 217.230469 232.390625 216.542969 232.851562 C 216.3125 232.273438 215.851562 232.390625 215.621094 232.390625 Z M 168.851562 215 C 183.941406 215 202.488281 217.648438 212.394531 224.789062 C 211.128906 212.578125 218.5 194.382812 226.445312 180.792969 C 233.933594 167.890625 245.222656 153.496094 255.933594 148.65625 C 245.222656 143.820312 233.589844 129.191406 226.21875 116.292969 C 218.382812 102.933594 211.128906 84.964844 212.394531 72.757812 C 202.71875 79.78125 183.941406 82.546875 168.851562 82.546875 C 153.761719 82.546875 135.21875 79.898438 125.3125 72.757812 C 126.578125 84.734375 119.4375 102.472656 111.71875 115.832031 C 104.234375 128.730469 92.714844 143.359375 81.769531 148.195312 C 92.253906 153.035156 103.425781 166.96875 111.027344 180.332031 C 118.863281 194.152344 126.578125 212.464844 125.195312 224.902344 C 134.988281 217.53125 153.761719 215 168.851562 215 Z M 168.851562 215 " fill-opacity="1" fill-rule="nonzero"/><path fill="#e44650" d="M 199.261719 203.828125 C 198.570312 203.828125 198.226562 203.597656 197.765625 202.90625 C 194.886719 197.835938 182.90625 194.613281 168.621094 194.613281 C 154.222656 194.613281 142.359375 198.066406 139.480469 202.90625 C 139.019531 203.828125 137.984375 203.941406 137.292969 203.597656 C 136.832031 203.367188 136.371094 202.675781 136.371094 202.097656 C 136.371094 201.867188 136.371094 201.40625 136.601562 201.175781 C 139.480469 195.878906 136.371094 183.210938 128.769531 170.078125 C 121.511719 157.871094 112.988281 149.464844 107.574219 149.464844 C 106.652344 149.464844 105.84375 148.773438 105.84375 147.734375 C 105.84375 146.699219 106.535156 146.007812 107.574219 146.007812 C 113.21875 146.007812 122.203125 137.484375 129.226562 125.046875 C 136.484375 112.605469 139.480469 100.285156 136.714844 95.332031 C 136.484375 95.101562 136.484375 94.871094 136.484375 94.410156 C 136.484375 93.71875 136.714844 93.371094 137.40625 92.910156 C 138.328125 92.453125 139.132812 92.683594 139.59375 93.601562 C 142.476562 98.671875 154.453125 101.894531 168.738281 101.894531 C 183.136719 101.894531 195 98.441406 197.878906 93.601562 C 198.339844 92.683594 199.378906 92.566406 200.070312 92.910156 C 200.53125 93.140625 200.992188 93.832031 200.992188 94.410156 C 200.992188 94.640625 200.992188 95.101562 200.761719 95.332031 C 197.878906 100.398438 200.992188 112.835938 208.363281 125.738281 C 215.621094 138.175781 224.144531 146.46875 229.789062 146.46875 C 230.710938 146.46875 231.515625 147.160156 231.515625 148.195312 C 231.515625 149.234375 230.824219 149.925781 229.789062 149.925781 C 224.144531 149.925781 215.621094 158.214844 208.363281 170.65625 C 200.875 183.554688 197.878906 195.996094 200.761719 201.0625 C 200.992188 201.292969 200.992188 201.523438 200.992188 201.984375 C 200.992188 202.675781 200.761719 203.019531 200.070312 203.480469 C 199.953125 203.828125 199.722656 203.828125 199.261719 203.828125 Z M 168.621094 191.273438 C 178.066406 191.273438 189.585938 192.769531 196.382812 197.144531 C 196.152344 189.082031 200.761719 177.910156 205.597656 169.386719 C 210.4375 161.097656 217.460938 152.113281 224.144531 148.65625 C 217.347656 145.203125 210.550781 136.21875 205.597656 127.925781 C 200.761719 119.402344 196.152344 108.230469 196.382812 100.167969 C 189.816406 104.3125 178.183594 106.042969 168.621094 106.042969 C 159.175781 106.042969 147.660156 104.542969 140.863281 100.167969 C 141.09375 108 136.714844 118.941406 131.878906 127.234375 C 127.039062 135.296875 120.011719 144.511719 113.101562 148.195312 C 119.667969 151.652344 126.695312 160.40625 131.53125 168.8125 C 136.601562 177.566406 141.324219 188.96875 140.976562 197.261719 C 147.660156 192.882812 159.175781 191.273438 168.621094 191.273438 Z M 168.621094 191.273438 " fill-opacity="1" fill-rule="nonzero"/><path fill="#e44650" d="M 182.90625 175.148438 C 182.214844 175.148438 181.871094 174.917969 181.410156 174.226562 C 180.371094 172.269531 174.84375 170.769531 168.507812 170.769531 C 162.171875 170.769531 157.105469 172.269531 155.835938 174.457031 C 155.375 175.378906 154.339844 175.492188 153.648438 175.148438 C 153.1875 174.917969 152.726562 174.226562 152.726562 173.648438 C 152.726562 173.417969 152.726562 172.960938 152.957031 172.730469 C 154.222656 170.539062 152.496094 164.667969 149.269531 158.675781 C 145.816406 152.804688 142.015625 149.464844 140.285156 149.464844 C 139.363281 149.464844 138.558594 148.773438 138.558594 147.734375 C 138.558594 146.699219 139.25 146.007812 140.285156 146.007812 C 142.707031 146.007812 146.621094 142.09375 149.730469 136.5625 C 152.84375 131.148438 154.339844 125.851562 153.1875 123.894531 C 152.957031 123.664062 152.957031 123.433594 152.957031 122.972656 C 152.957031 122.28125 153.1875 121.9375 153.878906 121.476562 C 154.800781 121.015625 155.605469 121.246094 156.066406 122.167969 C 157.105469 124.125 162.632812 125.621094 168.96875 125.621094 C 175.304688 125.621094 180.601562 124.125 181.871094 122.167969 C 182.332031 121.246094 183.367188 121.128906 184.058594 121.476562 C 184.519531 121.707031 184.980469 122.398438 184.980469 122.972656 C 184.980469 123.203125 184.980469 123.664062 184.75 123.894531 C 183.710938 125.851562 185.210938 131.726562 188.203125 137.253906 C 191.660156 143.359375 195.460938 146.46875 197.417969 146.46875 C 198.339844 146.46875 199.148438 147.160156 199.148438 148.195312 C 199.148438 149.234375 198.457031 149.925781 197.417969 149.925781 C 195.460938 149.925781 191.777344 153.148438 188.203125 159.136719 C 184.980469 164.550781 183.367188 170.308594 184.75 172.5 C 184.980469 172.730469 184.980469 172.960938 184.980469 173.417969 C 184.980469 174.109375 184.75 174.457031 184.058594 174.917969 C 183.480469 175.148438 183.25 175.148438 182.90625 175.148438 Z M 144.546875 148.195312 C 148.003906 150.84375 151.113281 155.453125 152.035156 157.410156 C 154.222656 161.097656 156.183594 165.933594 156.644531 169.847656 C 159.867188 168.351562 164.476562 167.660156 168.621094 167.660156 C 172.769531 167.660156 177.378906 168.351562 180.601562 169.847656 C 180.832031 166.164062 182.789062 161.558594 184.980469 157.871094 C 186.015625 156.144531 189.125 151.074219 192.582031 148.65625 C 188.894531 146.007812 186.015625 141.171875 184.980469 139.441406 C 182.789062 135.757812 180.832031 131.148438 180.601562 127.464844 C 177.378906 128.960938 172.769531 129.652344 168.621094 129.652344 C 164.476562 129.652344 159.867188 128.960938 156.644531 127.464844 C 156.414062 130.921875 154.453125 135.296875 152.496094 138.867188 C 150.308594 142.324219 147.429688 146.007812 144.546875 148.195312 Z M 144.546875 148.195312 " fill-opacity="1" fill-rule="nonzero"/><path fill="#e44650" d="M 168.851562 149.808594 C 168.160156 149.808594 167.816406 149.578125 167.355469 148.886719 L 80.503906 -2.453125 C 80.042969 -3.375 80.273438 -4.179688 81.195312 -4.640625 C 82.117188 -5.101562 82.921875 -4.871094 83.382812 -3.949219 L 170.234375 147.390625 C 170.695312 148.3125 170.464844 149.117188 169.542969 149.578125 C 169.542969 149.808594 169.082031 149.808594 168.851562 149.808594 Z M 168.851562 149.808594 " fill-opacity="1" fill-rule="nonzero"/><path fill="#e44650" d="M 168.851562 150.613281 L -5.082031 149.695312 C -6.003906 149.695312 -6.578125 148.773438 -6.578125 147.964844 C -6.578125 147.042969 -5.886719 146.238281 -4.851562 146.238281 L 169.082031 146.699219 C 170.003906 146.699219 170.582031 147.734375 170.582031 148.65625 C 170.582031 149.578125 169.773438 150.613281 168.851562 150.613281 Z M 168.851562 150.613281 " fill-opacity="1" fill-rule="nonzero"/><g clip-path="url(#id1)"><path fill="#e44650" d="M 74.976562 312.898438 C 74.746094 312.898438 74.285156 312.898438 74.054688 312.667969 C 73.132812 312.207031 73.015625 311.167969 73.363281 310.480469 L 167.355469 147.390625 C 167.816406 146.46875 168.851562 146.355469 169.542969 146.699219 C 170.464844 147.160156 170.582031 148.195312 170.234375 148.886719 L 76.355469 312.320312 C 76.125 312.667969 75.433594 312.898438 74.976562 312.898438 Z M 74.976562 312.898438 " fill-opacity="1" fill-rule="nonzero"/></g><path fill="#e44650" d="M 258.355469 305.066406 C 257.664062 305.066406 257.316406 304.835938 256.855469 304.144531 L 167.585938 149.117188 C 167.125 148.195312 167.355469 147.390625 168.277344 146.929688 C 169.199219 146.46875 170.003906 146.699219 170.464844 147.621094 L 259.851562 302.648438 C 260.3125 303.566406 260.082031 304.375 259.160156 304.835938 C 258.816406 304.835938 258.585938 305.066406 258.355469 305.066406 Z M 258.355469 305.066406 " fill-opacity="1" fill-rule="nonzero"/><path fill="#e44650" d="M 347.164062 150.613281 L 168.851562 149.925781 C 167.929688 149.925781 167.355469 148.886719 167.355469 147.964844 C 167.355469 147.042969 168.046875 146.007812 169.082031 146.007812 L 347.394531 146.699219 C 348.316406 146.699219 348.890625 147.734375 348.890625 148.65625 C 348.890625 149.578125 348.203125 150.613281 347.164062 150.613281 Z M 347.164062 150.613281 " fill-opacity="1" fill-rule="nonzero"/><path fill="#e44650" d="M 168.851562 149.808594 C 168.621094 149.808594 168.160156 149.808594 167.929688 149.578125 C 167.011719 149.117188 166.894531 148.082031 167.242188 147.390625 L 253.746094 -3.949219 C 254.207031 -4.871094 255.246094 -4.988281 255.933594 -4.640625 C 256.855469 -4.179688 256.972656 -3.144531 256.625 -2.453125 L 170.464844 148.886719 C 170.003906 149.578125 169.542969 149.808594 168.851562 149.808594 Z M 168.851562 149.808594 " fill-opacity="1" fill-rule="nonzero"/><g fill="#ffde59" fill-opacity="1"><g transform="translate(37.508636, 235.161194)"><g><path d="M 24.511719 0 C 37.667969 0 48.207031 -12.992188 48.207031 -33.175781 C 48.207031 -56.214844 37.667969 -65.367188 24.511719 -65.367188 C 11.4375 -65.367188 0.816406 -56.214844 0.816406 -33.175781 C 0.816406 -12.992188 11.4375 0 24.511719 0 Z M 41.507812 -33.582031 C 41.507812 -12.992188 35.214844 -0.898438 24.511719 -0.898438 C 13.890625 -0.898438 7.597656 -12.992188 7.597656 -33.582031 C 7.597656 -56.214844 13.890625 -64.46875 24.511719 -64.46875 C 35.214844 -64.46875 41.507812 -56.214844 41.507812 -33.582031 Z M 41.507812 -33.582031 "/></g></g></g><g fill="#ffde59" fill-opacity="1"><g transform="translate(86.523574, 235.161194)"><g/></g></g><g clip-path="url(#id2)"><path fill="#b24a3b" d="M 188.378906 302.640625 C 185.691406 295.8125 184.800781 295.730469 184.421875 295.695312 C 183.617188 295.621094 178.375 296.945312 175.597656 297.667969 C 174.917969 296.214844 173.78125 295.28125 172.328125 294.980469 C 172.445312 292.1875 172.738281 280.625 170.136719 268.765625 C 168.457031 261.105469 169.015625 253.023438 169.558594 245.207031 C 169.96875 239.277344 170.359375 233.671875 169.734375 228.636719 C 169.023438 222.894531 169.390625 217.625 169.746094 212.523438 C 170.09375 207.503906 170.457031 202.308594 169.734375 196.855469 C 169.523438 195.234375 169.316406 193.722656 169.117188 192.277344 C 167.996094 184.003906 167.183594 178.03125 166.878906 167.316406 C 166.527344 154.84375 166.875 144.710938 166.878906 144.609375 C 166.894531 144.222656 166.59375 143.902344 166.214844 143.886719 C 165.824219 143.875 165.515625 144.175781 165.5 144.558594 C 165.496094 144.660156 165.144531 154.835938 165.5 167.355469 C 165.804688 178.144531 166.621094 184.152344 167.753906 192.46875 C 167.949219 193.910156 168.15625 195.421875 168.371094 197.039062 C 169.070312 202.355469 168.730469 207.246094 168.371094 212.425781 C 168.011719 217.59375 167.640625 222.933594 168.367188 228.8125 C 168.976562 233.710938 168.589844 239.25 168.183594 245.113281 C 167.636719 253.027344 167.066406 261.207031 168.792969 269.066406 C 171.351562 280.742188 171.066406 292.132812 170.949219 294.894531 C 169.8125 294.992188 168.820312 295.539062 168.019531 296.34375 C 165.648438 294.675781 161.292969 291.648438 160.519531 291.4375 C 160.15625 291.335938 159.296875 291.097656 154.40625 296.542969 C 154.148438 296.828125 154.171875 297.269531 154.453125 297.527344 C 154.738281 297.78125 155.171875 297.761719 155.429688 297.476562 C 157.242188 295.457031 159.535156 293.183594 160.257812 292.824219 C 161.035156 293.214844 164.167969 295.332031 167.144531 297.425781 C 166.667969 298.152344 166.308594 298.980469 166.082031 299.828125 C 163.910156 298.164062 160.890625 295.976562 159.980469 295.933594 C 158.945312 295.886719 156.496094 298.074219 154.636719 299.917969 C 154.363281 300.1875 154.363281 300.625 154.628906 300.902344 C 154.894531 301.175781 155.328125 301.179688 155.601562 300.910156 C 157.234375 299.292969 159.328125 297.5 159.929688 297.332031 C 160.597656 297.527344 163.425781 299.523438 165.820312 301.378906 C 165.769531 302.046875 165.796875 302.6875 165.910156 303.285156 C 163.46875 302.078125 159.605469 300.210938 158.910156 300.105469 C 158.53125 300.050781 157.652344 299.917969 153.445312 305.914062 C 153.226562 306.230469 153.296875 306.664062 153.609375 306.882812 C 153.730469 306.972656 153.867188 307.011719 154.007812 307.011719 C 154.222656 307.011719 154.4375 306.910156 154.570312 306.71875 C 156.132812 304.488281 158.140625 301.949219 158.816406 301.511719 C 159.664062 301.792969 163.3125 303.53125 166.632812 305.191406 C 167.25 306.207031 168.191406 306.980469 169.40625 307.390625 C 169.988281 307.589844 170.554688 307.6875 171.105469 307.6875 C 172.117188 307.6875 173.054688 307.347656 173.859375 306.691406 C 177.605469 306.183594 181.652344 305.71875 182.523438 305.738281 C 183.007812 306.386719 184.007812 309.476562 184.695312 312.117188 C 184.777344 312.425781 185.058594 312.632812 185.363281 312.632812 C 185.417969 312.632812 185.480469 312.625 185.539062 312.609375 C 185.90625 312.511719 186.125 312.132812 186.03125 311.757812 C 184.171875 304.65625 183.300781 304.46875 182.925781 304.386719 C 182.238281 304.238281 178.113281 304.730469 175.175781 305.113281 C 175.480469 304.582031 175.726562 304 175.902344 303.386719 C 178.871094 302.378906 182.226562 301.398438 182.9375 301.429688 C 183.441406 301.8125 184.777344 304.222656 185.742188 306.308594 C 185.859375 306.5625 186.109375 306.710938 186.371094 306.710938 C 186.464844 306.710938 186.566406 306.6875 186.660156 306.644531 C 187.003906 306.480469 187.15625 306.066406 186.992188 305.71875 C 185.890625 303.335938 184.363281 300.425781 183.367188 300.101562 C 182.515625 299.824219 178.925781 300.910156 176.214844 301.816406 C 176.3125 300.863281 176.261719 299.894531 176.050781 298.988281 C 179.605469 298.066406 183.34375 297.171875 184.183594 297.089844 C 184.738281 297.675781 186.097656 300.617188 187.097656 303.15625 C 187.207031 303.429688 187.464844 303.59375 187.738281 303.59375 C 187.824219 303.59375 187.910156 303.578125 187.992188 303.542969 C 188.347656 303.402344 188.519531 303 188.378906 302.640625 " fill-opacity="1" fill-rule="nonzero"/></g><g fill="#ffde59" fill-opacity="1"><g transform="translate(214.939693, 129.408162)"><g/></g></g><g fill="#ffde59" fill-opacity="1"><g transform="translate(264.299064, 129.408162)"><g><path d="M 1.851562 -62.945312 C 0 -46.53125 2.097656 -21.476562 6.542969 0 C 6.542969 0 31.472656 -6.789062 31.472656 -62.945312 L 11.230469 -62.945312 L 27.277344 -93.304688 L 30.113281 -87.75 L 30.113281 -98.734375 Z M 10.613281 -61.710938 L 22.957031 -61.710938 C 22.957031 -46.652344 23.203125 -14.441406 13.082031 -4.691406 C 13.082031 -4.691406 6.789062 -48.011719 10.613281 -61.710938 Z M 10.613281 -61.710938 "/></g></g></g></svg>