<svg xmlns="http://www.w3.org/2000/svg" xmlns:xlink="http://www.w3.org/1999/xlink" width="400" zoomAndPan="magnify" viewBox="0 0 300 44.999999" height="60" preserveAspectRatio="xMidYMid meet" version="1.0"><defs><g/></defs><g fill="#ffde59" fill-opacity="1"><g transform="translate(80.402943, 33.749998)"><g><path d="M 8.371094 0 C 12.863281 0 16.460938 -4.4375 16.460938 -11.328125 C 16.460938 -19.195312 12.863281 -22.320312 8.371094 -22.320312 C 3.90625 -22.320312 0.277344 -19.195312 0.277344 -11.328125 C 0.277344 -4.4375 3.90625 0 8.371094 0 Z M 14.171875 -11.46875 C 14.171875 -4.4375 12.023438 -0.308594 8.371094 -0.308594 C 4.742188 -0.308594 2.59375 -4.4375 2.59375 -11.46875 C 2.59375 -19.195312 4.742188 -22.011719 8.371094 -22.011719 C 12.023438 -22.011719 14.171875 -19.195312 14.171875 -11.46875 Z M 14.171875 -11.46875 "/></g></g></g><g fill="#ffde59" fill-opacity="1"><g transform="translate(97.137351, 33.749998)"><g><path d="M 0.417969 -14.230469 C 0 -10.519531 0.472656 -4.855469 1.480469 0 C 1.480469 0 7.113281 -1.535156 7.113281 -14.230469 L 2.539062 -14.230469 L 6.164062 -21.09375 L 6.808594 -19.835938 L 6.808594 -22.320312 Z M 2.398438 -13.949219 L 5.1875 -13.949219 C 5.1875 -10.546875 5.246094 -3.265625 2.957031 -1.058594 C 2.957031 -1.058594 1.535156 -10.851562 2.398438 -13.949219 Z M 2.398438 -13.949219 "/></g></g></g><g fill="#ffde59" fill-opacity="1"><g transform="translate(124.171094, 33.749998)"><g><path d="M 6.390625 0.277344 C 6.554688 0.308594 6.472656 0.167969 6.527344 0.25 C 6.554688 0.335938 7.199219 0.277344 7.226562 0.25 L 7.5625 0.167969 C 7.699219 0.140625 8.035156 0.113281 8.035156 0.0820312 C 8.117188 0.0546875 8.148438 0.167969 8.175781 0.113281 C 8.175781 0.0546875 8.285156 0.0820312 8.3125 0.0273438 C 8.34375 0 8.398438 0.0273438 8.453125 0 C 8.507812 -0.0273438 8.816406 0.0273438 9.152344 -0.277344 C 9.289062 -0.417969 9.289062 -0.390625 9.347656 -0.503906 L 9.597656 -0.808594 C 9.652344 -0.863281 9.820312 -1.144531 9.820312 -1.144531 C 9.820312 -1.144531 9.875 -1.3125 9.933594 -1.367188 C 9.988281 -1.449219 10.015625 -1.589844 10.015625 -1.589844 C 10.070312 -1.644531 10.183594 -2.007812 10.183594 -2.007812 C 10.296875 -2.007812 10.433594 -2.652344 10.460938 -2.707031 C 10.519531 -2.789062 10.460938 -2.816406 10.546875 -2.957031 C 10.601562 -3.070312 10.628906 -3.347656 10.628906 -3.347656 C 10.742188 -3.488281 10.519531 -3.515625 10.628906 -3.542969 C 10.742188 -3.597656 10.769531 -3.960938 10.796875 -4.046875 C 10.851562 -4.15625 10.796875 -4.128906 10.851562 -4.214844 C 10.910156 -4.324219 10.851562 -4.464844 10.882812 -4.519531 C 10.992188 -4.6875 11.078125 -5.1875 11.078125 -5.1875 C 11.132812 -5.246094 11.105469 -5.46875 11.160156 -5.550781 C 11.214844 -5.664062 11.160156 -5.609375 11.214844 -5.804688 C 11.273438 -5.941406 11.242188 -6.027344 11.355469 -6.109375 C 11.355469 -6.109375 11.410156 -6.332031 11.496094 -6.527344 C 11.550781 -6.695312 11.664062 -7.058594 11.691406 -7.085938 L 11.800781 -7.308594 C 11.828125 -7.308594 11.914062 -7.589844 11.96875 -7.617188 C 11.996094 -7.617188 11.96875 -7.671875 11.996094 -7.699219 C 12.023438 -7.699219 12.304688 -8.035156 12.332031 -8.203125 C 12.359375 -8.480469 12.445312 -8.3125 12.414062 -8.675781 C 12.359375 -9.207031 11.632812 -8.789062 11.605469 -8.675781 C 11.578125 -8.566406 11.273438 -8.230469 11.105469 -7.980469 C 10.851562 -7.644531 10.714844 -7.421875 10.492188 -7.058594 L 9.960938 -6.195312 L 9.402344 -5.1875 L 8.507812 -3.710938 C 8.507812 -3.710938 8.398438 -3.597656 8.371094 -3.542969 C 8.257812 -3.292969 7.8125 -2.621094 7.726562 -2.457031 C 7.28125 -1.785156 7.140625 -1.589844 7.03125 -1.644531 C 7.003906 -1.675781 6.75 -2.007812 6.75 -2.035156 C 6.75 -2.035156 6.695312 -2.09375 6.667969 -2.148438 C 6.613281 -2.261719 6.554688 -2.230469 6.554688 -2.316406 C 6.527344 -2.34375 6.527344 -2.371094 6.5 -2.371094 L 6.472656 -2.425781 C 6.472656 -2.425781 6.472656 -2.484375 6.417969 -2.484375 C 6.390625 -2.539062 6.472656 -2.566406 6.359375 -2.652344 C 6.277344 -2.734375 6.25 -2.929688 6.222656 -2.957031 C 6.195312 -2.984375 6.136719 -3.375 6.082031 -3.570312 C 6.082031 -3.683594 6.082031 -3.765625 6.054688 -3.765625 C 6.027344 -3.765625 6.027344 -3.851562 5.96875 -3.851562 C 5.832031 -3.851562 5.886719 -4.15625 5.804688 -4.378906 C 5.746094 -4.632812 5.832031 -4.546875 5.859375 -4.910156 C 5.859375 -5.246094 5.832031 -4.992188 5.746094 -5.078125 C 5.746094 -5.078125 5.609375 -6.027344 5.550781 -6.25 C 5.523438 -6.417969 5.609375 -6.445312 5.550781 -6.554688 C 5.496094 -6.640625 5.550781 -6.527344 5.523438 -6.835938 C 5.496094 -7.335938 5.609375 -6.976562 5.523438 -7.839844 C 5.523438 -8.148438 5.550781 -8.257812 5.550781 -8.257812 C 5.550781 -8.257812 5.636719 -8.734375 5.609375 -8.871094 C 5.550781 -9.011719 5.691406 -8.984375 5.636719 -9.09375 C 5.609375 -9.125 5.636719 -9.152344 5.664062 -9.179688 C 5.664062 -9.179688 5.691406 -9.234375 5.691406 -9.375 L 5.691406 -9.515625 C 5.71875 -9.515625 5.746094 -9.597656 5.71875 -9.625 C 5.691406 -9.652344 5.832031 -9.792969 5.804688 -9.875 C 5.773438 -9.933594 5.859375 -9.988281 5.832031 -10.015625 C 5.832031 -10.015625 5.914062 -10.265625 5.914062 -10.351562 C 5.914062 -10.519531 6.027344 -10.492188 6.054688 -10.882812 C 6.054688 -11.078125 6.136719 -11.132812 6.109375 -11.214844 C 6.109375 -11.300781 6.136719 -11.242188 6.222656 -11.550781 C 6.25 -11.578125 6.445312 -12.191406 6.390625 -12.25 C 6.390625 -12.25 6.527344 -12.582031 6.613281 -13 L 6.722656 -13.28125 L 6.863281 -13.726562 C 6.890625 -13.867188 6.917969 -13.867188 6.945312 -14.117188 C 6.945312 -14.285156 7.03125 -14.425781 7.03125 -14.425781 C 7.03125 -14.425781 7.253906 -14.953125 7.308594 -15.207031 C 7.367188 -15.402344 7.5625 -15.761719 7.5625 -15.761719 C 7.5625 -15.761719 7.894531 -16.40625 7.867188 -16.710938 C 7.867188 -16.769531 7.867188 -16.824219 7.894531 -16.851562 L 7.953125 -17.046875 L 8.035156 -17.324219 L 8.175781 -17.855469 L 8.230469 -18.023438 C 8.34375 -18.246094 8.398438 -18.386719 8.425781 -18.46875 C 8.453125 -18.554688 8.453125 -18.609375 8.480469 -18.609375 C 8.480469 -18.609375 8.507812 -18.609375 8.507812 -18.636719 C 8.507812 -18.664062 8.566406 -18.722656 8.648438 -18.75 C 8.789062 -18.777344 8.816406 -18.777344 8.871094 -18.75 C 9.011719 -18.691406 9.347656 -18.414062 9.457031 -18.273438 C 9.570312 -18.105469 9.847656 -17.6875 9.90625 -17.578125 L 9.933594 -17.492188 C 9.988281 -17.464844 10.296875 -16.65625 10.351562 -16.460938 C 10.351562 -16.347656 10.351562 -16.320312 10.296875 -16.152344 L 10.210938 -15.957031 L 10.101562 -15.679688 L 9.738281 -14.816406 C 9.652344 -14.730469 9.679688 -14.757812 9.625 -14.589844 C 9.347656 -13.894531 9.375 -13.53125 9.738281 -13.167969 C 9.960938 -12.945312 10.324219 -12.75 10.546875 -12.75 C 10.6875 -12.75 10.742188 -12.722656 10.882812 -12.667969 C 11.105469 -12.582031 11.273438 -12.640625 11.273438 -12.640625 C 11.300781 -12.609375 11.523438 -12.722656 11.496094 -12.722656 C 11.496094 -12.722656 11.605469 -12.890625 11.605469 -12.972656 C 11.632812 -13.140625 11.664062 -13.058594 11.664062 -13.28125 C 11.632812 -13.503906 11.691406 -13.613281 11.71875 -13.921875 C 11.773438 -14.5625 11.773438 -14.703125 11.773438 -14.785156 C 11.773438 -14.816406 11.773438 -14.898438 11.800781 -14.925781 L 11.828125 -15.039062 L 11.886719 -15.207031 C 11.941406 -15.289062 11.941406 -15.371094 11.941406 -15.402344 L 11.96875 -15.539062 L 12.023438 -15.734375 C 12.054688 -15.820312 12.109375 -15.957031 12.136719 -16.070312 L 12.332031 -16.460938 C 12.359375 -16.574219 12.414062 -16.683594 12.414062 -16.683594 C 12.445312 -16.683594 12.5 -16.769531 12.527344 -16.824219 L 12.777344 -17.324219 C 12.890625 -17.519531 12.945312 -17.660156 12.945312 -17.882812 L 12.917969 -18.078125 L 12.777344 -18.164062 C 12.695312 -18.21875 12.609375 -18.273438 12.582031 -18.273438 C 12.5 -18.273438 12.414062 -18.300781 12.359375 -18.359375 C 12.332031 -18.386719 12.21875 -18.441406 12.109375 -18.46875 L 11.914062 -18.527344 L 11.914062 -18.46875 C 11.914062 -18.414062 11.859375 -18.332031 11.71875 -18.105469 L 11.1875 -17.492188 L 11.105469 -17.605469 C 10.9375 -17.96875 10.882812 -18.078125 10.769531 -18.191406 L 10.601562 -18.414062 C 10.546875 -18.496094 9.988281 -19.027344 9.933594 -19.027344 L 9.765625 -19.113281 C 9.710938 -19.167969 9.570312 -19.222656 9.515625 -19.25 C 9.375 -19.308594 8.480469 -19.53125 8.148438 -19.585938 L 7.785156 -19.667969 C 7.644531 -19.699219 7.671875 -19.699219 7.53125 -19.640625 C 7.421875 -19.613281 7.28125 -19.503906 7.085938 -19.25 C 7.03125 -19.195312 6.976562 -19.140625 6.945312 -19.140625 C 6.917969 -19.140625 6.890625 -19.113281 6.863281 -19.082031 C 6.835938 -19.027344 6.75 -18.917969 6.667969 -18.804688 C 6.417969 -18.527344 6.277344 -18.359375 6.136719 -18.164062 L 5.832031 -17.6875 L 5.523438 -17.1875 C 5.382812 -16.964844 5.160156 -16.574219 5.160156 -16.542969 C 5.160156 -16.542969 4.6875 -15.652344 4.242188 -14.589844 C 3.988281 -14.003906 3.960938 -13.894531 3.824219 -13.476562 C 3.738281 -13.222656 3.402344 -12.304688 3.347656 -11.859375 C 3.320312 -11.691406 3.292969 -11.605469 3.265625 -11.410156 C 3.207031 -11.019531 2.902344 -9.710938 2.847656 -8.621094 C 2.816406 -8.203125 2.789062 -8.148438 2.789062 -7.867188 C 2.789062 -6.5 2.875 -5.382812 2.902344 -5.21875 C 2.902344 -5.050781 2.929688 -4.992188 2.984375 -4.9375 C 3.011719 -4.910156 3.011719 -4.910156 2.984375 -4.882812 C 2.929688 -4.882812 2.902344 -4.796875 2.957031 -4.796875 C 2.984375 -4.796875 2.984375 -4.742188 2.984375 -4.632812 C 2.957031 -4.15625 3.070312 -4.546875 3.152344 -4.183594 L 3.265625 -3.851562 C 3.265625 -3.765625 3.292969 -3.792969 3.347656 -3.628906 C 3.375 -3.433594 3.433594 -3.65625 3.402344 -3.488281 C 3.375 -3.292969 3.542969 -3.152344 3.542969 -3.152344 C 3.515625 -3.097656 3.628906 -2.984375 3.597656 -2.875 C 3.597656 -2.761719 3.765625 -2.816406 3.765625 -2.652344 C 3.765625 -2.566406 3.65625 -2.566406 3.710938 -2.511719 C 3.765625 -2.457031 3.738281 -2.398438 3.738281 -2.398438 C 3.792969 -2.398438 3.765625 -2.34375 3.824219 -2.34375 L 3.851562 -2.289062 C 3.824219 -2.261719 3.824219 -2.230469 3.824219 -2.203125 C 3.824219 -2.121094 3.824219 -2.203125 3.878906 -2.203125 L 3.933594 -2.175781 C 3.933594 -2.175781 3.933594 -2.148438 3.960938 -2.148438 C 4.019531 -2.148438 4.046875 -2.066406 3.960938 -2.09375 C 3.878906 -2.09375 3.90625 -2.09375 3.988281 -2.007812 C 3.988281 -1.980469 4.046875 -2.035156 4.046875 -2.066406 C 4.046875 -1.980469 4.074219 -1.925781 4.101562 -1.871094 L 4.101562 -1.730469 C 4.074219 -1.675781 4.183594 -1.589844 4.183594 -1.589844 L 4.242188 -1.5625 C 4.183594 -1.480469 4.214844 -1.421875 4.296875 -1.449219 C 4.324219 -1.449219 4.324219 -1.421875 4.324219 -1.394531 C 4.324219 -1.339844 4.351562 -1.339844 4.378906 -1.339844 C 4.40625 -1.285156 4.464844 -1.226562 4.546875 -1.199219 L 4.601562 -1.144531 L 4.601562 -1.117188 L 4.660156 -1.058594 C 4.601562 -1.058594 4.660156 -1.03125 4.632812 -0.976562 C 4.546875 -0.921875 4.6875 -0.976562 4.714844 -0.894531 C 4.742188 -0.835938 4.660156 -0.921875 4.6875 -0.863281 C 4.714844 -0.808594 4.828125 -0.863281 4.828125 -0.808594 C 4.828125 -0.78125 4.855469 -0.78125 4.855469 -0.78125 L 4.9375 -0.699219 C 4.882812 -0.613281 4.882812 -0.613281 4.964844 -0.53125 C 5.078125 -0.445312 4.992188 -0.445312 5.105469 -0.363281 C 5.21875 -0.222656 5.078125 -0.445312 5.105469 -0.472656 L 5.132812 -0.445312 C 5.160156 -0.417969 5.160156 -0.417969 5.1875 -0.445312 L 5.21875 -0.417969 C 5.132812 -0.277344 5.355469 -0.140625 5.414062 -0.140625 L 5.441406 -0.140625 L 5.523438 -0.0546875 C 5.664062 0.0273438 5.71875 0.0546875 5.804688 0.0546875 C 5.832031 0.0546875 5.886719 0.113281 5.96875 0.140625 C 6 0.140625 6.164062 0.25 6.222656 0.222656 C 6.222656 0.222656 6.304688 0.277344 6.390625 0.277344 Z M 6.390625 0.277344 "/></g></g></g><g fill="#ffde59" fill-opacity="1"><g transform="translate(137.11237, 33.749998)"><g><path d="M 13.78125 -1.535156 C 13.78125 -1.535156 13.644531 -1.785156 13.558594 -3.011719 L 13.53125 -3.792969 C 13.503906 -4.242188 13.503906 -5.300781 13.53125 -5.300781 L 13.390625 -6.25 C 13.417969 -6.277344 13.417969 -6.390625 13.417969 -6.445312 C 13.390625 -6.277344 13.363281 -6.554688 13.417969 -6.613281 C 13.449219 -6.640625 13.363281 -7.113281 13.335938 -7.476562 L 13.058594 -9.457031 C 13.058594 -9.457031 12.835938 -10.992188 12.804688 -13.867188 C 12.804688 -14.453125 12.722656 -16.125 12.695312 -16.574219 C 12.695312 -16.710938 12.582031 -17.214844 12.582031 -17.214844 C 12.582031 -17.242188 12.445312 -18.273438 12.359375 -18.273438 C 12.332031 -18.273438 12.054688 -18.609375 12.054688 -18.554688 C 12.023438 -18.496094 11.941406 -18.582031 11.996094 -18.609375 C 11.996094 -18.636719 11.382812 -19.503906 10.65625 -19.167969 C 10.492188 -19.082031 10.492188 -19.140625 10.460938 -19.027344 C 10.433594 -18.945312 10.324219 -18.832031 10.351562 -18.609375 L 10.351562 -18.332031 C 10.324219 -18.273438 10.296875 -18.359375 10.265625 -18.246094 C 10.265625 -18.105469 10.324219 -18.164062 10.296875 -18.050781 C 10.296875 -18.023438 10.183594 -17.910156 10.210938 -17.746094 C 10.238281 -17.6875 10.238281 -17.6875 10.210938 -17.6875 C 10.183594 -17.714844 10.183594 -17.632812 10.183594 -17.519531 C 10.210938 -17.355469 10.15625 -17.4375 10.128906 -17.101562 C 10.101562 -16.710938 10.070312 -16.574219 10.101562 -16.574219 C 10.15625 -16.574219 10.15625 -16.515625 10.101562 -16.515625 C 10.015625 -16.515625 10.101562 -15.539062 10.101562 -15.539062 C 10.101562 -15.484375 9.988281 -15.625 10.042969 -15.429688 C 10.070312 -15.289062 10.015625 -15.457031 10.015625 -15.289062 C 10.015625 -15.148438 10.101562 -15.234375 10.042969 -15.121094 C 9.988281 -15.011719 10.101562 -15.011719 10.042969 -14.980469 C 9.988281 -14.953125 10.070312 -12.972656 10.070312 -11.71875 C 10.101562 -10.601562 9.710938 -8.84375 9.484375 -7.980469 L 8.816406 -5.246094 C 8.789062 -5.21875 7.921875 -2.261719 7.839844 -2.261719 C 7.785156 -2.261719 7.671875 -2.816406 7.644531 -2.875 C 7.589844 -2.984375 7.589844 -3.265625 7.476562 -3.402344 C 7.421875 -3.488281 7.367188 -3.65625 7.367188 -3.65625 C 7.335938 -3.683594 7.394531 -4.019531 7.308594 -4.019531 L 7.113281 -5.355469 L 6.890625 -6.5 C 6.808594 -6.808594 6.667969 -8.398438 6.667969 -8.230469 C 6.667969 -8.898438 6.554688 -9.125 6.527344 -9.375 C 6.5 -9.765625 6.304688 -10.769531 6.304688 -10.851562 C 6.195312 -11.800781 6.25 -12.109375 6.136719 -12.722656 C 6.082031 -13.222656 6.390625 -18.136719 6.054688 -18.636719 C 6.054688 -18.664062 5.441406 -19.472656 4.992188 -19.699219 C 4.964844 -19.726562 3.375 -20.171875 3.125 -20.058594 C 2.816406 -19.863281 2.875 -19.445312 2.816406 -18.886719 L 2.789062 -13.921875 C 2.875 -11.273438 4.128906 -5.773438 4.324219 -5.023438 C 4.324219 -4.992188 4.660156 -3.628906 4.714844 -3.65625 C 4.714844 -3.65625 5.328125 -1.925781 6 -0.808594 C 6.585938 0.167969 7.253906 0.140625 7.476562 -0.0546875 C 7.503906 -0.0820312 7.953125 -0.167969 8.089844 -0.558594 C 8.148438 -0.640625 8.285156 -0.835938 8.3125 -0.949219 C 8.34375 -1.089844 8.507812 -1.285156 8.59375 -1.871094 L 8.84375 -2.984375 C 8.84375 -3.125 9.125 -4.019531 9.152344 -4.15625 C 9.179688 -4.296875 9.375 -4.660156 9.375 -4.769531 L 9.710938 -6.417969 C 9.820312 -6.78125 10.042969 -8.285156 10.042969 -8.285156 C 10.042969 -8.285156 10.042969 -8.425781 10.265625 -9.375 C 10.296875 -9.152344 10.460938 -7.726562 10.519531 -7.671875 L 10.546875 -7.5625 C 10.546875 -7.503906 10.546875 -7.394531 10.574219 -7.308594 C 10.65625 -7.058594 10.714844 -7.003906 10.65625 -6.976562 C 10.601562 -6.945312 10.6875 -6.976562 10.6875 -6.917969 C 10.65625 -6.835938 10.769531 -6.863281 10.714844 -6.78125 C 10.6875 -6.75 10.796875 -6.277344 10.796875 -6.25 C 10.796875 -6.195312 10.796875 -6.136719 10.851562 -6.082031 C 10.882812 -5.859375 10.882812 -5.832031 10.910156 -5.832031 C 10.964844 -5.832031 10.964844 -5.832031 10.9375 -5.773438 C 10.910156 -5.746094 10.910156 -5.71875 10.992188 -5.382812 C 11.019531 -5.273438 11.078125 -5.1875 11.078125 -5.1875 C 10.992188 -5.21875 11.046875 -5.132812 11.046875 -5.078125 L 11.078125 -4.964844 C 11.132812 -4.519531 11.691406 -2.875 11.71875 -2.847656 C 11.914062 -2.230469 12.21875 -1.730469 12.332031 -1.507812 C 12.582031 -0.921875 12.414062 -1.285156 12.945312 -0.472656 C 13.28125 0.113281 13.390625 -0.0546875 13.699219 -0.195312 C 13.839844 -0.25 13.921875 -0.613281 13.949219 -0.699219 C 14.089844 -1.003906 13.808594 -1.089844 13.78125 -1.535156 Z M 13.417969 -6.445312 C 13.417969 -6.472656 13.417969 -6.445312 13.417969 -6.445312 Z M 13.417969 -6.445312 "/></g></g></g><g fill="#ffde59" fill-opacity="1"><g transform="translate(151.364508, 33.749998)"><g><path d="M 13 -18.414062 C 12.972656 -18.414062 12.972656 -18.441406 12.972656 -18.496094 C 12.972656 -18.527344 12.863281 -18.859375 12.917969 -18.859375 C 12.945312 -18.859375 12.835938 -18.972656 12.835938 -19 C 12.835938 -19.027344 12.804688 -19.027344 12.804688 -19.027344 L 12.777344 -19.082031 C 12.640625 -19.363281 11.914062 -19.613281 11.886719 -19.640625 C 11.800781 -19.667969 11.746094 -19.640625 11.664062 -19.667969 C 11.4375 -19.78125 11.4375 -19.753906 11.355469 -19.699219 C 11.273438 -19.585938 11.410156 -19.558594 11.300781 -19.417969 C 11.160156 -19.25 11.242188 -19.417969 11.214844 -19.417969 C 11.1875 -19.417969 11.1875 -19.308594 11.105469 -19.308594 C 11.019531 -19.308594 11.019531 -19.167969 10.9375 -19.027344 C 10.851562 -18.886719 10.851562 -18.75 10.742188 -18.777344 C 10.65625 -18.804688 10.40625 -19.277344 10.238281 -19.417969 C 10.210938 -19.445312 9.765625 -19.949219 9.679688 -19.894531 C 9.625 -19.863281 9.625 -19.921875 9.652344 -19.949219 C 9.738281 -19.976562 9.515625 -20.03125 9.515625 -19.921875 C 9.515625 -19.835938 9.484375 -19.976562 9.457031 -19.894531 C 9.429688 -19.808594 9.347656 -19.949219 9.375 -19.808594 C 9.402344 -19.753906 9.375 -19.753906 9.320312 -19.808594 C 9.234375 -19.921875 9.234375 -19.835938 9.179688 -19.753906 C 9.066406 -19.667969 9.09375 -19.699219 8.984375 -19.667969 C 8.84375 -19.585938 8.957031 -19.613281 8.761719 -19.558594 C 8.675781 -19.53125 8.703125 -19.472656 8.648438 -19.445312 C 8.59375 -19.417969 8.566406 -19.472656 8.539062 -19.472656 C 8.480469 -19.472656 8.59375 -19.390625 8.453125 -19.390625 C 8.371094 -19.390625 8.398438 -19.390625 8.425781 -19.25 C 8.257812 -19.390625 8.257812 -19.308594 8.089844 -19.195312 C 7.980469 -19.113281 8.0625 -19.140625 8.089844 -19.113281 C 8.117188 -19.054688 7.921875 -19.140625 7.867188 -19.054688 C 7.726562 -18.886719 7.644531 -19.140625 7.617188 -18.886719 C 7.589844 -18.804688 7.589844 -18.832031 7.5625 -18.859375 C 7.476562 -18.886719 7.28125 -18.722656 7.253906 -18.722656 C 7.171875 -18.636719 7.085938 -18.582031 6.945312 -18.527344 C 6.890625 -18.496094 6.472656 -18.246094 6.5 -18.191406 C 6.5 -18.164062 6.613281 -18.246094 6.527344 -18.164062 C 6.472656 -18.136719 6.359375 -18.136719 6.359375 -18.136719 C 6.359375 -18.105469 6.359375 -18.105469 6.332031 -18.105469 C 6.332031 -18.078125 6.304688 -18.050781 6.304688 -18.023438 C 6.277344 -17.855469 6.109375 -17.96875 6.136719 -17.855469 C 6.136719 -17.773438 6.109375 -17.828125 6.082031 -17.828125 C 6 -17.855469 5.832031 -17.746094 5.804688 -17.6875 C 5.496094 -17.324219 5.609375 -17.550781 5.46875 -17.324219 L 5.414062 -17.269531 C 5.382812 -17.242188 5.414062 -17.242188 5.382812 -17.214844 C 5.355469 -17.269531 5.273438 -17.160156 5.300781 -17.101562 C 5.300781 -17.074219 5.21875 -17.019531 5.21875 -17.074219 C 5.1875 -17.074219 5.1875 -17.074219 5.1875 -17.046875 L 5.1875 -17.019531 C 5.160156 -17.046875 5.132812 -16.964844 5.132812 -16.90625 C 5.132812 -16.824219 5.023438 -16.796875 5.023438 -16.824219 C 4.992188 -16.878906 5.023438 -16.796875 4.9375 -16.769531 C 4.6875 -16.65625 4.714844 -16.265625 4.601562 -16.265625 C 4.574219 -16.238281 4.601562 -16.347656 4.492188 -16.238281 C 4.351562 -16.070312 4.40625 -16.070312 4.351562 -16.015625 C 4.296875 -15.929688 4.128906 -15.847656 4.128906 -15.679688 C 4.128906 -15.652344 4.214844 -15.484375 4.046875 -15.484375 C 4.019531 -15.484375 3.90625 -15.539062 3.90625 -15.34375 C 3.792969 -15.34375 3.824219 -15.148438 3.738281 -15.09375 C 3.488281 -14.925781 3.738281 -14.925781 3.628906 -14.785156 C 3.570312 -14.757812 3.433594 -14.5625 3.460938 -14.5625 C 3.515625 -14.535156 3.460938 -14.453125 3.460938 -14.425781 C 3.515625 -14.3125 3.375 -14.285156 3.347656 -14.199219 C 3.320312 -14.171875 3.238281 -13.753906 3.238281 -13.671875 C 3.238281 -13.222656 3.125 -13.613281 3.042969 -13.195312 C 3.042969 -13.167969 2.929688 -12.667969 2.957031 -12.667969 C 2.984375 -12.640625 3.070312 -12.582031 2.984375 -12.554688 C 2.875 -12.554688 2.929688 -12.359375 2.984375 -12.332031 L 2.957031 -12.277344 C 2.929688 -12.386719 2.789062 -12.332031 2.875 -12.21875 C 2.929688 -12.136719 2.875 -12.164062 2.875 -12.082031 C 2.789062 -11.96875 2.816406 -11.773438 2.816406 -11.746094 C 2.789062 -11.71875 2.789062 -11.550781 2.847656 -11.578125 C 2.902344 -11.578125 2.929688 -11.523438 2.847656 -11.523438 C 2.679688 -11.523438 2.875 -11.160156 2.816406 -11.160156 C 2.789062 -11.132812 2.847656 -11.019531 2.847656 -11.019531 C 2.789062 -11.019531 2.929688 -10.964844 2.902344 -10.9375 C 2.875 -10.9375 2.847656 -10.492188 2.816406 -10.460938 C 2.761719 -10.378906 2.621094 -9.039062 3.824219 -8.035156 C 4.714844 -7.28125 6 -7.253906 6.027344 -7.253906 C 6.304688 -7.199219 6.222656 -7.335938 6.390625 -7.28125 C 6.5 -7.253906 6.472656 -7.253906 6.640625 -7.28125 C 7.003906 -7.367188 7.699219 -7.726562 7.699219 -7.726562 L 8.816406 -8.285156 C 8.898438 -8.285156 8.871094 -8.3125 8.816406 -7.839844 C 8.761719 -7.5625 8.480469 -7.171875 8.480469 -7.171875 C 8.480469 -7.171875 7.503906 -5.914062 7.03125 -4.769531 C 6.863281 -4.296875 6.136719 -2.929688 6.054688 -1.394531 C 6 -0.53125 6.027344 -0.558594 6.109375 0.0820312 C 6.164062 0.140625 6.359375 0.308594 6.390625 0.308594 C 6.390625 0.308594 6.667969 0.503906 6.863281 0.503906 C 6.917969 0.503906 7.113281 0.53125 7.140625 0.503906 C 7.199219 0.472656 7.253906 0.585938 7.253906 0.53125 C 7.28125 0.417969 7.503906 0.445312 7.476562 0.363281 C 7.476562 0.25 7.5625 0.363281 7.671875 0.222656 C 7.757812 0.140625 7.785156 0.167969 7.785156 0.167969 C 7.757812 0.0273438 7.839844 0.222656 7.894531 0.0820312 C 7.894531 0 8.007812 0 7.953125 -0.0546875 C 7.921875 -0.0820312 7.921875 -0.0820312 7.953125 -0.0820312 C 7.980469 -0.0546875 8.007812 -0.113281 8.035156 -0.195312 C 8.035156 -0.25 8.480469 -0.585938 8.539062 -0.726562 C 8.566406 -0.835938 8.789062 -1.089844 8.84375 -1.171875 L 9.066406 -1.644531 C 9.066406 -1.703125 9.375 -2.09375 9.375 -2.121094 L 9.652344 -2.621094 C 9.679688 -2.652344 9.679688 -2.652344 9.652344 -2.652344 C 9.570312 -2.679688 9.679688 -2.679688 9.738281 -2.847656 L 10.15625 -3.710938 C 10.296875 -4.046875 10.40625 -4.242188 10.40625 -4.242188 L 10.519531 -4.574219 C 10.519531 -4.632812 10.65625 -4.964844 10.65625 -5.050781 C 10.65625 -4.964844 10.882812 -5.664062 10.851562 -5.773438 C 10.851562 -5.773438 10.992188 -6.390625 10.992188 -7.476562 C 10.992188 -8.566406 10.796875 -8.621094 10.796875 -8.621094 C 10.796875 -8.648438 10.574219 -9.011719 10.460938 -9.066406 L 10.265625 -9.179688 C 8.84375 -10.265625 6.417969 -8.175781 5.804688 -8.425781 C 5.578125 -8.507812 5.664062 -8.871094 5.609375 -8.957031 C 5.578125 -8.984375 5.550781 -8.984375 5.578125 -9.011719 C 5.636719 -9.011719 5.496094 -9.207031 5.523438 -9.234375 C 5.523438 -9.234375 5.300781 -10.378906 5.382812 -10.824219 C 5.382812 -10.851562 5.496094 -11.691406 5.523438 -11.71875 C 5.636719 -11.828125 5.636719 -12.054688 5.636719 -12.054688 C 5.664062 -11.996094 5.71875 -12.082031 5.71875 -12.109375 C 5.71875 -12.164062 5.773438 -12.109375 5.746094 -12.21875 C 5.71875 -12.332031 5.773438 -12.25 5.773438 -12.332031 L 5.96875 -12.722656 L 6.082031 -13 C 6.136719 -13 6.527344 -13.503906 6.554688 -13.558594 C 6.808594 -13.894531 7.171875 -14.367188 7.476562 -14.648438 C 7.503906 -14.648438 8.3125 -15.371094 8.398438 -15.402344 C 8.425781 -15.402344 8.957031 -15.820312 9.289062 -16.097656 C 9.375 -16.183594 9.515625 -16.378906 10.042969 -16.65625 C 10.101562 -16.683594 9.988281 -16.125 10.015625 -16.097656 L 9.988281 -16.015625 C 9.960938 -16.015625 9.960938 -15.679688 9.960938 -15.707031 L 9.960938 -15.625 C 9.875 -15.34375 9.988281 -15.316406 10.015625 -15.289062 C 10.042969 -15.175781 9.933594 -15.121094 9.960938 -15.09375 C 9.960938 -15.011719 9.988281 -15.09375 10.015625 -15.011719 C 10.015625 -14.980469 9.933594 -14.703125 10.042969 -14.507812 C 10.238281 -14.144531 10.40625 -14.257812 10.546875 -14.199219 C 10.574219 -14.171875 10.964844 -14.117188 10.964844 -14.089844 C 10.964844 -14.035156 11.1875 -14.117188 11.300781 -14.089844 C 11.523438 -14.035156 11.632812 -14.199219 11.632812 -14.230469 C 11.632812 -14.3125 11.746094 -14.453125 11.691406 -14.535156 C 11.664062 -14.621094 11.773438 -14.648438 11.773438 -14.785156 L 11.773438 -14.898438 C 11.800781 -14.898438 11.800781 -14.925781 11.773438 -14.925781 C 11.746094 -14.898438 11.746094 -14.953125 11.773438 -14.953125 C 11.828125 -14.953125 11.886719 -15.148438 11.800781 -15.121094 L 11.914062 -15.597656 C 11.941406 -15.929688 12.21875 -16.574219 12.25 -16.683594 C 12.277344 -16.738281 12.277344 -16.824219 12.277344 -16.851562 C 12.277344 -16.878906 12.277344 -16.878906 12.304688 -16.878906 C 12.332031 -16.878906 12.332031 -16.878906 12.332031 -16.90625 C 12.332031 -16.933594 12.359375 -17.019531 12.386719 -17.074219 C 12.386719 -17.101562 12.554688 -17.382812 12.554688 -17.410156 C 12.527344 -17.4375 12.527344 -17.464844 12.554688 -17.464844 C 12.609375 -17.464844 12.640625 -17.746094 12.722656 -17.773438 C 12.777344 -17.828125 12.75 -17.855469 12.804688 -17.828125 C 12.890625 -17.800781 12.804688 -17.910156 12.890625 -17.96875 C 13 -18.078125 12.863281 -17.996094 12.917969 -18.105469 C 13.03125 -18.246094 13 -18.273438 12.972656 -18.273438 L 12.972656 -18.332031 L 13 -18.332031 L 13 -18.386719 C 13.03125 -18.414062 13 -18.414062 13 -18.414062 Z M 8.539062 -5.71875 C 8.507812 -5.550781 8.398438 -4.4375 8.285156 -3.960938 C 8.230469 -3.570312 7.699219 -1.871094 7.699219 -1.871094 C 7.699219 -2.175781 7.449219 -0.167969 6.976562 -0.503906 C 6.695312 -0.699219 6.722656 -0.503906 6.808594 -1.785156 C 6.863281 -2.929688 7.253906 -3.460938 7.28125 -3.683594 C 7.308594 -3.878906 7.726562 -4.546875 7.785156 -4.855469 C 7.839844 -5.078125 8.621094 -6.222656 8.539062 -5.71875 Z M 8.539062 -5.71875 "/></g></g></g><g fill="#ffde59" fill-opacity="1"><g transform="translate(163.803755, 33.749998)"><g><path d="M 10.433594 0.113281 C 10.460938 0.0820312 10.492188 0.0820312 10.519531 0.0820312 C 10.546875 0.0820312 10.742188 -0.195312 10.742188 -0.25 C 10.742188 -0.25 10.882812 -0.308594 10.9375 -0.472656 C 11.019531 -0.699219 10.796875 -0.894531 10.851562 -1.117188 C 10.851562 -1.199219 10.769531 -1.144531 10.824219 -1.253906 C 10.851562 -1.367188 10.769531 -1.3125 10.796875 -1.394531 C 10.824219 -1.449219 10.742188 -1.535156 10.769531 -1.535156 C 10.851562 -1.535156 10.769531 -2.007812 10.742188 -2.09375 C 10.628906 -2.34375 10.824219 -3.988281 10.824219 -3.988281 C 10.769531 -4.046875 10.851562 -4.128906 10.824219 -4.214844 C 10.824219 -4.214844 10.910156 -4.464844 10.882812 -4.574219 C 10.882812 -4.769531 10.910156 -4.601562 10.9375 -4.855469 C 11.019531 -5.609375 11.214844 -5.691406 11.242188 -6.164062 C 11.242188 -6.332031 11.300781 -6.554688 11.300781 -6.554688 C 11.300781 -6.554688 11.382812 -7.058594 11.355469 -7.644531 C 11.328125 -8.007812 11.328125 -8.3125 11.328125 -8.34375 C 11.300781 -8.371094 11.328125 -8.425781 11.273438 -8.480469 L 11.273438 -8.507812 C 11.328125 -8.507812 11.300781 -8.566406 11.273438 -8.734375 C 11.273438 -9.09375 11.1875 -9.652344 11.242188 -10.183594 C 11.300781 -10.628906 11.1875 -11.242188 11.214844 -11.71875 C 11.214844 -12.164062 11.160156 -11.96875 11.160156 -12.527344 C 11.160156 -12.835938 11.160156 -14.703125 11.273438 -15.316406 C 11.410156 -16.125 11.523438 -16.488281 11.523438 -16.488281 C 11.523438 -16.574219 11.605469 -16.710938 11.605469 -16.824219 C 11.605469 -16.878906 11.664062 -17.019531 11.691406 -17.160156 C 11.773438 -17.382812 11.828125 -17.6875 11.691406 -17.882812 C 11.578125 -18.023438 11.664062 -17.96875 11.550781 -18.105469 L 11.605469 -18.105469 C 11.800781 -18.246094 13.449219 -18.023438 13.53125 -18.050781 C 13.613281 -18.078125 14.339844 -17.996094 14.339844 -17.996094 C 14.367188 -18.023438 15.34375 -17.941406 15.402344 -17.96875 C 15.484375 -17.96875 17.160156 -17.632812 17.214844 -17.410156 C 17.296875 -17.046875 17.464844 -17.1875 17.578125 -17.242188 C 17.882812 -17.492188 17.746094 -17.605469 17.800781 -17.800781 C 18.136719 -18.554688 15.761719 -18.75 15.566406 -18.804688 C 15.289062 -18.917969 14.230469 -19.027344 14.171875 -19.027344 C 13.671875 -19.113281 12.445312 -19.25 12.332031 -19.277344 C 11.941406 -19.335938 10.601562 -19.472656 10.574219 -19.472656 L 8.871094 -19.585938 L 8.703125 -19.640625 C 8.675781 -19.667969 8.3125 -19.753906 8.117188 -19.699219 C 8.0625 -19.667969 8.007812 -19.640625 7.980469 -19.613281 L 7.953125 -19.613281 C 7.8125 -19.640625 7.421875 -19.613281 7.28125 -19.640625 C 7.03125 -19.726562 4.796875 -19.613281 4.828125 -19.585938 C 4.742188 -19.613281 2.679688 -19.390625 2.652344 -19.390625 L 2.09375 -19.308594 C 1.8125 -19.25 1.5625 -19.335938 1.703125 -18.441406 C 1.871094 -17.550781 1.785156 -17.632812 1.925781 -17.410156 C 2.035156 -17.242188 2.121094 -16.964844 2.230469 -16.769531 C 2.289062 -16.683594 2.484375 -16.796875 2.816406 -16.738281 C 3.460938 -16.628906 4.714844 -16.769531 4.714844 -16.769531 C 5.050781 -16.710938 6.527344 -17.1875 6.527344 -17.1875 C 6.527344 -17.1875 6.75 -17.324219 7.085938 -17.324219 L 7.394531 -17.492188 C 7.503906 -17.578125 7.671875 -17.632812 7.8125 -17.660156 C 7.757812 -16.292969 7.726562 -14.035156 7.757812 -12.445312 C 7.757812 -12.277344 7.8125 -10.492188 7.867188 -10.324219 C 7.894531 -10.238281 7.921875 -9.234375 7.980469 -9.152344 C 8.007812 -9.09375 8.007812 -8.675781 8.035156 -8.648438 C 8.0625 -8.621094 8.089844 -8.203125 8.089844 -8.148438 C 8.0625 -8.0625 8.089844 -7.953125 8.148438 -7.867188 C 8.117188 -7.894531 8.117188 -7.867188 8.117188 -7.839844 C 8.148438 -7.757812 8.175781 -7.503906 8.203125 -7.335938 C 8.230469 -7.140625 8.203125 -7.113281 8.230469 -6.945312 C 8.257812 -6.75 8.230469 -6.78125 8.3125 -6.332031 C 8.371094 -5.886719 8.3125 -5.941406 8.371094 -5.71875 C 8.425781 -5.496094 8.480469 -4.992188 8.539062 -4.769531 C 8.566406 -4.546875 8.566406 -4.4375 8.59375 -4.296875 C 8.648438 -4.128906 8.621094 -4.074219 8.675781 -3.878906 C 8.929688 -2.929688 8.816406 -3.042969 9.320312 -1.644531 C 9.597656 -0.863281 9.652344 -0.699219 9.710938 -0.585938 C 9.847656 -0.390625 9.847656 -0.0820312 10.128906 0.0273438 C 10.324219 0.113281 10.324219 0.222656 10.433594 0.113281 Z M 10.433594 0.113281 "/></g></g></g><g fill="#ffde59" fill-opacity="1"><g transform="translate(177.442296, 33.749998)"><g><path d="M 13.363281 -15.566406 L 13.308594 -15.957031 C 13.253906 -16.292969 13.167969 -16.460938 13.113281 -16.796875 C 13.113281 -16.933594 13 -17.1875 13 -17.1875 C 13 -17.214844 12.945312 -17.269531 12.945312 -17.324219 C 12.890625 -17.464844 12.835938 -17.464844 12.804688 -17.578125 C 12.777344 -17.660156 12.667969 -17.773438 12.667969 -17.800781 C 12.667969 -17.828125 12.277344 -18.332031 11.632812 -18.664062 L 11.242188 -18.859375 C 11.160156 -18.917969 10.992188 -19 10.9375 -19 C 10.882812 -19 10.851562 -19.113281 10.6875 -19.054688 C 10.546875 -18.972656 10.628906 -19.113281 10.433594 -18.945312 C 10.296875 -18.832031 9.347656 -17.855469 9.347656 -17.855469 C 9.289062 -17.855469 9.347656 -17.714844 9.289062 -17.714844 C 9.207031 -17.714844 9.261719 -17.605469 9.207031 -17.6875 C 9.179688 -17.746094 9.152344 -17.6875 9.179688 -17.660156 C 9.234375 -17.605469 9.09375 -17.6875 9.066406 -17.578125 C 9.066406 -17.550781 9.039062 -17.550781 9.039062 -17.550781 C 9.039062 -17.550781 9.011719 -17.550781 9.011719 -17.519531 C 9.011719 -17.492188 8.871094 -17.324219 8.898438 -17.296875 C 8.898438 -17.269531 8.898438 -17.269531 8.871094 -17.269531 C 8.871094 -17.269531 8.816406 -17.242188 8.789062 -17.1875 C 8.703125 -17.074219 8.84375 -17.160156 8.734375 -17.074219 C 8.648438 -17.019531 8.621094 -16.933594 8.507812 -16.769531 C 8.398438 -16.601562 8.539062 -16.65625 8.398438 -16.542969 C 8.34375 -16.488281 8.285156 -16.40625 8.285156 -16.378906 L 8.257812 -16.320312 C 8.203125 -16.320312 7.894531 -15.761719 7.894531 -15.734375 L 7.894531 -15.707031 C 7.839844 -15.679688 7.8125 -15.539062 7.757812 -15.511719 C 7.699219 -15.457031 7.726562 -15.289062 7.699219 -15.316406 C 7.671875 -15.316406 7.617188 -15.234375 7.644531 -15.234375 C 7.644531 -15.234375 7.503906 -14.980469 7.503906 -14.953125 C 7.503906 -14.953125 7.53125 -14.980469 7.53125 -14.925781 C 7.53125 -14.84375 7.476562 -14.925781 7.421875 -14.84375 C 7.394531 -14.785156 7.421875 -14.757812 7.449219 -14.757812 L 7.421875 -14.675781 C 7.394531 -14.757812 7.226562 -14.453125 7.253906 -14.394531 C 7.28125 -14.367188 7.199219 -14.339844 7.199219 -14.285156 C 7.199219 -14.199219 7.113281 -14.144531 7.140625 -14.0625 C 7.199219 -13.976562 7.113281 -14.0625 7.113281 -14.003906 C 7.085938 -13.894531 7.003906 -13.78125 7.03125 -13.753906 L 7.058594 -13.726562 C 7.058594 -13.699219 7.003906 -13.699219 7.003906 -13.699219 C 7.058594 -13.644531 6.945312 -13.613281 7.003906 -13.503906 L 7.003906 -13.417969 C 6.976562 -13.417969 6.976562 -13.335938 6.976562 -13.308594 L 6.976562 -13.195312 C 6.863281 -13.167969 6.863281 -13.222656 6.917969 -13.222656 C 6.945312 -13.253906 6.917969 -13.335938 6.890625 -13.308594 C 6.863281 -13.28125 6.890625 -13.03125 6.890625 -13.03125 C 6.863281 -13.03125 6.835938 -13.167969 6.808594 -13.03125 C 6.808594 -12.972656 6.835938 -12.945312 6.890625 -12.917969 L 6.890625 -12.835938 C 6.863281 -12.835938 6.863281 -12.804688 6.890625 -12.804688 L 6.890625 -12.75 L 6.808594 -12.804688 C 6.808594 -12.722656 6.75 -12.695312 6.78125 -12.640625 C 6.78125 -12.640625 6.78125 -12.609375 6.75 -12.609375 C 6.722656 -12.582031 6.722656 -12.359375 6.75 -12.359375 C 6.78125 -12.359375 6.75 -12.304688 6.722656 -12.304688 C 6.722656 -12.304688 6.722656 -12.054688 6.695312 -12.054688 C 6.640625 -12.082031 6.667969 -11.941406 6.667969 -11.96875 L 6.695312 -11.996094 C 6.667969 -11.914062 6.640625 -11.132812 6.640625 -11.105469 C 6.613281 -11.273438 6.585938 -10.964844 6.640625 -10.964844 C 6.613281 -10.851562 6.613281 -10.824219 6.640625 -10.769531 C 6.667969 -10.601562 6.613281 -10.546875 6.667969 -10.378906 L 6.695312 -10.210938 C 6.695312 -10.210938 6.695312 -10.15625 6.75 -10.101562 C 6.863281 -9.960938 6.667969 -10.101562 6.722656 -9.988281 C 6.78125 -9.875 6.835938 -9.960938 6.78125 -9.875 C 6.722656 -9.765625 6.835938 -9.765625 6.78125 -9.765625 C 6.75 -9.765625 6.695312 -9.261719 6.976562 -8.957031 L 7.199219 -8.957031 C 7.226562 -8.957031 7.308594 -9.011719 7.367188 -9.011719 C 7.394531 -9.039062 7.671875 -9.066406 7.699219 -9.09375 C 7.757812 -9.125 7.839844 -9.011719 7.8125 -9.09375 C 7.8125 -9.152344 7.867188 -9.09375 7.867188 -9.152344 C 7.867188 -9.207031 7.980469 -9.152344 8.007812 -9.125 C 8.035156 -9.066406 8.117188 -9.207031 8.203125 -9.179688 C 8.257812 -9.125 8.230469 -9.207031 8.257812 -9.179688 C 8.3125 -9.152344 8.34375 -9.207031 8.3125 -9.207031 L 8.3125 -9.234375 C 8.3125 -9.261719 8.3125 -9.261719 8.285156 -9.289062 C 8.175781 -9.320312 8.480469 -9.320312 8.34375 -9.347656 C 8.285156 -9.375 8.3125 -9.429688 8.34375 -9.429688 C 8.398438 -9.429688 8.398438 -9.515625 8.371094 -9.542969 C 8.34375 -9.570312 8.34375 -9.570312 8.371094 -9.597656 C 8.398438 -9.625 8.425781 -9.738281 8.453125 -9.90625 C 8.453125 -10.210938 8.507812 -10.546875 8.566406 -10.824219 C 8.734375 -11.382812 8.761719 -11.605469 8.761719 -11.605469 C 8.789062 -11.605469 8.761719 -11.800781 8.789062 -11.773438 C 8.871094 -11.746094 8.84375 -12.023438 8.898438 -12.109375 C 8.898438 -12.109375 8.898438 -12.21875 8.929688 -12.304688 C 9.011719 -12.414062 8.957031 -12.527344 9.039062 -12.582031 C 9.09375 -12.640625 9.066406 -12.722656 9.125 -12.804688 C 9.234375 -13 9.179688 -13.085938 9.234375 -13.167969 C 9.289062 -13.222656 9.289062 -13.390625 9.320312 -13.390625 C 9.375 -13.390625 9.402344 -13.671875 9.429688 -13.699219 C 9.484375 -13.726562 9.542969 -13.894531 9.625 -14.089844 C 9.710938 -14.285156 9.652344 -14.199219 9.738281 -14.3125 C 9.820312 -14.453125 9.765625 -14.394531 9.847656 -14.589844 C 9.847656 -14.621094 10.265625 -15.539062 10.324219 -15.539062 L 10.546875 -15.957031 C 10.628906 -16.070312 10.574219 -16.042969 10.65625 -16.097656 C 10.714844 -16.183594 10.769531 -16.347656 10.910156 -16.628906 C 10.964844 -16.710938 10.910156 -16.710938 10.992188 -16.796875 C 11.078125 -16.878906 11.019531 -16.878906 11.105469 -16.90625 C 11.160156 -16.964844 11.132812 -17.019531 11.160156 -17.046875 C 11.214844 -17.101562 11.242188 -17.355469 11.300781 -16.992188 C 11.355469 -16.574219 11.4375 -16.542969 11.523438 -14.535156 C 11.523438 -14.089844 11.550781 -13.867188 11.550781 -13.867188 C 11.523438 -13.390625 11.523438 -13 11.496094 -12.695312 L 11.410156 -11.800781 L 11.355469 -10.9375 L 11.214844 -9.652344 C 11.214844 -9.652344 11.214844 -8.84375 11.078125 -7.953125 C 10.992188 -7.394531 10.910156 -6.75 10.851562 -6.640625 C 10.851562 -6.585938 10.796875 -6.25 10.742188 -6.109375 C 10.6875 -5.773438 10.574219 -5.355469 10.433594 -4.828125 C 10.433594 -4.796875 10.101562 -3.433594 9.960938 -3.125 C 9.90625 -2.984375 9.847656 -2.707031 9.847656 -2.707031 C 9.820312 -2.679688 9.933594 -2.59375 9.847656 -2.621094 C 9.765625 -2.652344 9.765625 -2.371094 9.679688 -2.261719 C 9.652344 -2.203125 9.652344 -2.148438 9.652344 -2.121094 C 9.679688 -2.09375 9.679688 -2.066406 9.652344 -2.09375 C 9.597656 -2.121094 9.570312 -1.839844 9.515625 -1.8125 C 9.484375 -1.785156 9.542969 -1.730469 9.484375 -1.703125 C 9.429688 -1.644531 9.457031 -1.617188 9.429688 -1.5625 C 9.347656 -1.394531 9.347656 -1.253906 9.347656 -0.976562 L 9.207031 -1.003906 C 9.039062 -1.003906 8.816406 -1.117188 8.621094 -1.199219 C 8.507812 -1.226562 8.566406 -1.226562 8.257812 -1.394531 C 7.921875 -1.617188 7.785156 -1.757812 7.785156 -1.757812 C 7.785156 -1.757812 7.785156 -1.8125 7.699219 -1.898438 C 7.53125 -2.007812 7.03125 -2.621094 6.945312 -2.734375 L 6.863281 -2.902344 C 6.808594 -2.984375 6.722656 -3.042969 6.695312 -3.125 C 6.359375 -3.738281 6.277344 -4.128906 6.136719 -4.4375 C 6.082031 -4.546875 5.804688 -5.441406 5.746094 -5.71875 C 5.71875 -5.804688 5.746094 -5.71875 5.71875 -5.886719 L 5.636719 -6.25 L 5.636719 -6.445312 L 5.609375 -6.640625 L 5.550781 -6.917969 L 5.550781 -7.253906 L 5.523438 -7.503906 C 5.496094 -8.285156 5.550781 -8.257812 5.496094 -9.515625 C 5.496094 -9.847656 5.46875 -11.242188 5.578125 -11.496094 C 5.578125 -11.496094 5.550781 -11.691406 5.550781 -11.914062 C 5.609375 -12.527344 5.691406 -12.777344 5.691406 -12.777344 C 5.664062 -12.863281 5.71875 -13 5.746094 -13.308594 C 5.773438 -13.726562 5.859375 -14.035156 5.859375 -14.171875 C 5.859375 -14.199219 5.914062 -14.339844 5.941406 -14.480469 C 5.941406 -14.757812 6 -14.703125 6.027344 -14.925781 C 6.082031 -15.148438 6.222656 -15.457031 6.25 -15.652344 C 6.25 -15.761719 6.304688 -15.761719 6.277344 -15.847656 C 6.277344 -15.902344 6.417969 -16.152344 6.417969 -16.210938 C 6.417969 -16.265625 6.445312 -16.238281 6.445312 -16.292969 C 6.445312 -16.292969 6.554688 -16.460938 6.554688 -16.542969 C 6.585938 -16.65625 6.695312 -16.710938 6.695312 -16.90625 C 6.695312 -17.074219 6.976562 -17.464844 6.976562 -17.519531 C 6.976562 -17.519531 7.199219 -18.023438 7.199219 -18.441406 C 7.226562 -18.722656 7.171875 -18.972656 6.5 -19.222656 C 6.222656 -19.308594 5.96875 -19.417969 5.941406 -19.417969 C 5.71875 -19.390625 5.523438 -19.390625 5.523438 -19.335938 C 5.523438 -19.335938 5.441406 -19.277344 5.382812 -19.222656 C 4.632812 -18.441406 4.074219 -16.738281 3.792969 -16.125 C 3.628906 -15.792969 3.542969 -15.566406 3.542969 -15.566406 C 3.433594 -15.371094 3.402344 -15.175781 3.375 -15.039062 C 3.238281 -14.675781 3.207031 -14.367188 3.152344 -14.144531 C 2.984375 -13.613281 2.929688 -13.058594 2.902344 -12.945312 C 2.734375 -11.773438 2.816406 -9.960938 2.847656 -9.738281 C 2.875 -9.625 3.011719 -7.839844 3.347656 -6.695312 L 3.542969 -6.054688 L 3.683594 -5.664062 C 3.683594 -5.664062 3.851562 -5.300781 3.960938 -4.964844 C 3.960938 -4.9375 4.183594 -4.40625 4.242188 -4.269531 C 4.324219 -4.128906 4.324219 -4.046875 4.492188 -3.765625 C 4.660156 -3.515625 4.660156 -3.515625 4.714844 -3.375 C 4.855469 -3.011719 4.910156 -2.984375 5.023438 -2.847656 C 5.21875 -2.59375 5.160156 -2.707031 5.414062 -2.34375 L 6 -1.730469 L 6.332031 -1.394531 C 6.332031 -1.394531 6.78125 -0.976562 7.003906 -0.835938 C 7.199219 -0.726562 7.308594 -0.613281 7.476562 -0.558594 C 7.671875 -0.472656 7.757812 -0.363281 7.921875 -0.308594 L 8.371094 -0.195312 C 8.675781 -0.140625 8.789062 -0.0546875 9.09375 -0.140625 C 9.234375 -0.167969 9.375 -0.195312 9.375 -0.222656 C 9.375 -0.222656 9.820312 -0.335938 9.820312 -0.613281 C 9.820312 -0.640625 10.042969 -0.699219 10.042969 -0.808594 C 10.042969 -0.863281 10.210938 -0.921875 10.210938 -0.949219 C 10.210938 -0.949219 10.433594 -1.226562 10.460938 -1.3125 C 10.460938 -1.449219 10.519531 -1.421875 10.574219 -1.617188 C 10.65625 -1.785156 10.6875 -1.757812 10.6875 -1.871094 C 10.714844 -2.007812 10.742188 -1.925781 10.742188 -2.007812 C 10.769531 -2.175781 10.9375 -2.316406 11.019531 -2.679688 C 11.078125 -2.847656 11.078125 -2.929688 11.132812 -2.984375 C 11.160156 -3.042969 11.160156 -3.097656 11.1875 -3.125 C 11.1875 -3.125 11.273438 -3.375 11.328125 -3.460938 C 11.355469 -3.542969 11.355469 -3.65625 11.355469 -3.65625 C 11.382812 -3.65625 11.4375 -3.765625 11.46875 -3.851562 C 11.523438 -3.933594 11.578125 -4.296875 11.632812 -4.40625 C 11.691406 -4.464844 11.664062 -4.546875 11.71875 -4.601562 C 11.773438 -4.632812 11.828125 -4.9375 11.828125 -4.9375 C 11.886719 -4.910156 11.859375 -5.078125 11.914062 -5.160156 C 11.996094 -5.246094 11.941406 -5.246094 12.023438 -5.414062 C 12.109375 -5.578125 12.054688 -5.523438 12.136719 -5.71875 C 12.191406 -5.914062 12.21875 -6.054688 12.277344 -6.082031 C 12.304688 -6.109375 12.277344 -6.277344 12.277344 -6.277344 C 12.277344 -6.277344 12.304688 -6.417969 12.359375 -6.472656 C 12.386719 -6.554688 12.414062 -6.640625 12.386719 -6.667969 C 12.386719 -6.695312 12.386719 -6.695312 12.414062 -6.722656 C 12.445312 -6.78125 12.527344 -7.03125 12.554688 -7.058594 C 12.554688 -7.058594 12.609375 -7.308594 12.640625 -7.367188 L 12.640625 -7.449219 C 12.582031 -7.449219 12.582031 -7.503906 12.640625 -7.503906 C 12.667969 -7.503906 12.667969 -7.617188 12.722656 -7.726562 C 12.804688 -7.867188 12.75 -8.035156 12.835938 -8.148438 C 12.890625 -8.257812 12.863281 -8.984375 12.945312 -9.125 C 13 -9.261719 13 -9.402344 13 -9.402344 C 13.03125 -9.457031 12.972656 -9.429688 12.972656 -9.515625 C 12.972656 -9.570312 13.03125 -9.484375 13.03125 -9.570312 C 13 -9.625 13.085938 -9.679688 13.058594 -9.765625 C 13.03125 -9.847656 13.167969 -10.128906 13.085938 -10.15625 C 13.058594 -10.15625 13.085938 -10.183594 13.113281 -10.210938 C 13.140625 -10.238281 13.167969 -10.296875 13.167969 -10.433594 C 13.195312 -10.574219 13.195312 -10.601562 13.167969 -10.601562 C 13.140625 -10.574219 13.140625 -10.574219 13.140625 -10.601562 C 13.140625 -10.601562 13.195312 -10.628906 13.195312 -10.714844 C 13.195312 -10.851562 13.28125 -10.742188 13.222656 -10.9375 C 13.195312 -11.105469 13.253906 -10.964844 13.222656 -11.1875 C 13.222656 -11.410156 13.28125 -11.214844 13.253906 -11.496094 C 13.253906 -12.25 13.335938 -12.5 13.363281 -12.75 C 13.363281 -12.75 13.390625 -13.058594 13.390625 -13.363281 C 13.417969 -13.921875 13.503906 -15.011719 13.363281 -15.566406 Z M 13.363281 -15.566406 "/></g></g></g><g fill="#ffde59" fill-opacity="1"><g transform="translate(190.885601, 33.749998)"><g><path d="M 14.980469 0.335938 C 15.039062 0.308594 15.679688 -0.445312 15.566406 -1.117188 C 15.539062 -1.285156 15.679688 -1.757812 15.597656 -1.871094 C 15.539062 -1.925781 15.539062 -1.953125 15.566406 -1.980469 C 15.597656 -1.980469 15.597656 -2.035156 15.597656 -2.203125 C 15.511719 -2.984375 15.761719 -3.710938 15.625 -3.792969 C 15.625 -3.792969 15.679688 -3.851562 15.625 -4.574219 C 15.625 -4.742188 15.734375 -4.769531 15.652344 -4.964844 C 15.597656 -5.078125 15.707031 -5.050781 15.625 -5.273438 C 15.566406 -5.496094 15.761719 -5.328125 15.707031 -5.636719 C 15.679688 -5.691406 15.761719 -6.304688 15.792969 -6.304688 L 15.957031 -7.003906 L 16.097656 -9.765625 C 15.988281 -10.128906 16.070312 -10.296875 15.988281 -10.296875 C 15.957031 -10.296875 15.929688 -10.492188 15.957031 -10.519531 C 15.988281 -10.546875 15.929688 -10.546875 15.902344 -10.574219 C 15.875 -10.824219 15.929688 -10.769531 15.820312 -10.882812 L 15.761719 -11.019531 C 15.792969 -11.078125 15.792969 -11.160156 15.761719 -11.214844 C 15.734375 -11.355469 15.847656 -11.941406 15.457031 -12.359375 C 15.429688 -12.386719 15.429688 -12.554688 15.34375 -12.527344 C 15.289062 -12.527344 15.148438 -12.945312 15.148438 -12.835938 C 15.148438 -12.695312 15.066406 -13.085938 14.84375 -13.140625 C 14.757812 -13.167969 14.3125 -13.417969 13.976562 -13.335938 C 13.894531 -13.308594 13.753906 -13.140625 13.644531 -13.113281 C 13.53125 -13.085938 13.558594 -13 13.476562 -12.917969 C 12.695312 -12.304688 11.859375 -11.1875 11.859375 -11.1875 L 11.800781 -11.105469 L 11.691406 -10.992188 C 11.664062 -10.910156 11.664062 -10.910156 11.273438 -10.296875 C 11.273438 -11.1875 11.746094 -12.972656 11.523438 -15.539062 C 11.410156 -16.738281 10.882812 -16.964844 10.882812 -16.964844 C 10.882812 -17.046875 10.714844 -16.878906 10.714844 -16.964844 C 10.714844 -16.992188 10.65625 -17.101562 10.628906 -17.019531 C 10.546875 -16.933594 10.433594 -17.128906 10.433594 -17.160156 C 10.324219 -17.019531 10.265625 -17.101562 10.324219 -17.101562 C 10.40625 -17.160156 10.296875 -17.128906 10.296875 -17.160156 C 10.296875 -17.242188 10.210938 -17.074219 10.128906 -17.101562 C 10.042969 -17.160156 10.210938 -17.160156 10.15625 -17.1875 C 10.070312 -17.242188 10.128906 -17.074219 10.015625 -17.1875 C 9.875 -17.324219 9.875 -17.214844 9.875 -17.160156 L 9.847656 -17.214844 C 9.792969 -17.296875 9.710938 -17.1875 9.679688 -17.269531 C 9.652344 -17.355469 9.542969 -17.242188 9.515625 -17.324219 C 9.484375 -17.4375 9.484375 -17.296875 9.457031 -17.269531 L 9.429688 -17.242188 L 9.429688 -17.296875 C 9.402344 -17.355469 9.320312 -17.355469 9.347656 -17.324219 C 9.347656 -17.296875 9.179688 -17.296875 9.125 -17.269531 C 9.066406 -17.1875 9.09375 -17.355469 9.039062 -17.242188 C 8.957031 -17.128906 9.039062 -17.296875 8.957031 -17.296875 C 8.898438 -17.296875 8.957031 -17.269531 8.789062 -17.101562 C 8.566406 -16.851562 8.703125 -16.992188 8.703125 -16.933594 C 8.703125 -16.90625 8.703125 -16.933594 8.734375 -16.964844 L 8.703125 -16.90625 C 8.566406 -16.851562 8.648438 -16.65625 8.621094 -16.710938 C 8.59375 -16.769531 8.566406 -16.738281 8.59375 -16.683594 C 8.59375 -16.683594 8.0625 -15.734375 8.007812 -15.734375 C 7.894531 -15.652344 8.0625 -15.625 8.0625 -15.597656 C 8.0625 -15.597656 7.921875 -15.511719 7.921875 -15.457031 C 7.921875 -15.457031 7.449219 -15.402344 5.832031 -10.460938 L 5.300781 -8.453125 C 5.273438 -8.480469 5.273438 -8.957031 5.246094 -9.011719 C 5.132812 -9.179688 5.246094 -11.550781 5.246094 -11.800781 C 5.273438 -13.808594 5.578125 -13.753906 5.636719 -14.199219 C 5.691406 -14.480469 5.804688 -14.980469 5.832031 -15.929688 C 5.859375 -16.320312 5.636719 -16.515625 5.773438 -16.488281 C 5.832031 -16.488281 5.832031 -16.515625 5.859375 -16.601562 C 5.941406 -16.933594 5.832031 -16.769531 5.832031 -16.878906 C 5.832031 -16.964844 5.914062 -16.878906 5.914062 -17.019531 C 5.886719 -17.128906 5.914062 -18.023438 5.804688 -18.078125 C 5.71875 -18.136719 5.746094 -18.359375 5.664062 -18.300781 C 5.664062 -18.300781 5.523438 -19.140625 5.078125 -19.558594 C 4.742188 -19.863281 4.296875 -19.726562 4.269531 -19.699219 C 4.183594 -19.699219 4.128906 -19.699219 4.046875 -19.277344 C 3.988281 -19.054688 3.433594 -17.773438 3.433594 -16.738281 L 3.402344 -16.683594 C 3.375 -16.683594 3.375 -16.65625 3.375 -16.628906 L 3.320312 -16.183594 C 3.292969 -16.152344 3.265625 -16.152344 3.292969 -16.152344 L 3.292969 -16.070312 C 3.265625 -16.070312 3.265625 -16.042969 3.265625 -16.042969 C 2.652344 -15.484375 2.707031 -7.644531 2.984375 -7.953125 L 2.984375 -7.894531 C 2.789062 -7.644531 3.570312 -4.019531 3.65625 -3.960938 C 3.683594 -3.933594 3.65625 -3.765625 3.65625 -3.710938 C 3.683594 -3.65625 3.738281 -3.320312 3.765625 -3.375 C 3.792969 -3.402344 3.824219 -3.320312 3.765625 -3.320312 C 3.710938 -3.320312 3.792969 -3.179688 3.792969 -3.179688 C 3.765625 -3.179688 3.878906 -2.566406 3.933594 -2.59375 C 4.046875 -2.621094 3.851562 -2.371094 3.988281 -2.371094 C 4.019531 -2.371094 4.019531 -2.34375 4.019531 -2.34375 C 4.019531 -2.316406 3.933594 -2.34375 3.988281 -2.316406 C 4.019531 -2.289062 4.019531 -1.980469 4.183594 -1.925781 C 4.296875 -1.871094 4.046875 -1.839844 4.15625 -1.757812 C 4.183594 -1.757812 4.15625 -1.8125 4.183594 -1.8125 C 4.214844 -1.8125 4.183594 -1.589844 4.242188 -1.589844 C 4.296875 -1.617188 4.183594 -1.535156 4.242188 -1.535156 C 4.269531 -1.535156 4.214844 -1.507812 4.269531 -1.480469 C 4.351562 -1.449219 4.269531 -1.367188 4.324219 -1.339844 C 4.351562 -1.339844 4.351562 -1.339844 4.351562 -1.3125 C 4.324219 -1.253906 4.351562 -1.171875 4.378906 -1.171875 C 4.378906 -1.171875 4.4375 -0.808594 4.6875 -0.445312 C 5.1875 -0.445312 5.441406 -0.417969 5.578125 -0.445312 C 5.746094 -0.503906 5.746094 -0.445312 5.746094 -0.503906 C 5.773438 -0.558594 5.832031 -0.472656 5.914062 -0.53125 C 6.082031 -0.613281 5.859375 -0.558594 5.941406 -0.613281 C 6.027344 -0.667969 6.136719 -0.585938 6.136719 -0.667969 C 6.164062 -0.726562 6.195312 -0.640625 6.222656 -0.726562 C 6.25 -0.808594 6.277344 -0.753906 6.277344 -0.835938 C 6.277344 -0.921875 6.640625 -1.003906 6.667969 -1.058594 C 6.667969 -1.117188 6.527344 -1.03125 6.613281 -1.117188 C 6.667969 -1.144531 6.640625 -1.253906 6.585938 -1.199219 C 6.5 -1.089844 6.640625 -1.394531 6.585938 -1.285156 C 6.554688 -1.226562 6.109375 -3.347656 5.914062 -4.519531 C 5.886719 -4.6875 5.886719 -4.855469 5.886719 -5.1875 C 5.914062 -5.441406 5.773438 -6.136719 5.773438 -6.164062 C 5.746094 -6.136719 5.746094 -8.203125 6.445312 -10.378906 C 6.667969 -11.019531 6.5 -10.769531 6.5 -10.910156 C 6.527344 -11.019531 6.613281 -10.882812 6.640625 -11.046875 C 6.667969 -11.242188 6.78125 -11.4375 6.75 -11.4375 C 6.722656 -11.46875 6.722656 -11.523438 6.75 -11.496094 C 6.75 -11.496094 7.644531 -13.390625 7.644531 -13.417969 C 7.644531 -13.449219 8.398438 -14.980469 8.675781 -15.402344 C 8.789062 -15.539062 8.816406 -15.429688 8.816406 -15.402344 C 8.507812 -14.898438 8.285156 -11.96875 8.257812 -11.886719 C 8.117188 -11.46875 8.0625 -8.0625 8.148438 -8.035156 C 8.203125 -8.035156 8.035156 -7.867188 8.148438 -7.894531 C 8.203125 -7.921875 8.117188 -7.839844 8.148438 -7.8125 C 8.203125 -7.726562 8.148438 -7.53125 8.148438 -7.503906 C 8.175781 -7.476562 8.089844 -7.308594 8.148438 -7.308594 C 8.117188 -7.308594 8.398438 -5.023438 8.789062 -4.632812 C 9.039062 -4.351562 9.765625 -4.601562 9.792969 -4.601562 L 9.820312 -4.574219 C 9.820312 -4.519531 9.90625 -4.546875 9.90625 -4.601562 C 9.960938 -4.769531 10.101562 -4.464844 10.210938 -4.632812 C 10.265625 -4.714844 10.351562 -4.601562 10.351562 -4.6875 C 10.378906 -4.769531 10.6875 -4.910156 10.6875 -4.992188 C 10.714844 -5.132812 10.851562 -4.992188 10.824219 -5.105469 C 10.796875 -5.1875 11.019531 -5.078125 10.964844 -5.246094 C 10.9375 -5.273438 10.964844 -5.300781 10.964844 -5.328125 C 11.019531 -5.382812 11.019531 -5.414062 10.964844 -5.496094 C 10.769531 -5.914062 11.078125 -6.25 11.105469 -6.917969 C 11.132812 -7.058594 11.996094 -9.597656 11.996094 -9.597656 C 11.996094 -9.792969 12.722656 -11.019531 12.75 -11.019531 C 12.695312 -11.019531 13.390625 -11.886719 13.417969 -11.941406 C 13.53125 -11.550781 13.28125 -10.128906 13.28125 -10.128906 C 13.308594 -10.101562 13.28125 -10.101562 13.28125 -10.101562 C 13.253906 -10.101562 13.253906 -10.042969 13.253906 -9.988281 C 13.28125 -9.792969 13.222656 -9.988281 13.253906 -9.820312 C 13.28125 -9.570312 13.28125 -9.570312 13.222656 -9.542969 C 13.195312 -9.515625 13.167969 -9.429688 13.195312 -9.429688 C 13.28125 -9.429688 13.113281 -8.929688 13.195312 -8.871094 C 13.253906 -8.84375 13.113281 -8.816406 13.195312 -8.789062 C 13.222656 -8.761719 13.140625 -8.734375 13.195312 -8.703125 C 13.222656 -8.675781 13.195312 -8.648438 13.140625 -8.648438 L 13.113281 -8.648438 C 13.113281 -8.59375 13.195312 -8.621094 13.195312 -8.59375 L 13.167969 -8.566406 C 13.113281 -8.566406 13.140625 -8.453125 13.167969 -8.453125 C 13.253906 -8.453125 13.058594 -8.398438 13.140625 -8.398438 C 13.195312 -8.398438 13.167969 -8.148438 13.167969 -8.117188 C 13.113281 -7.980469 13.222656 -8.175781 13.167969 -7.953125 C 13.113281 -7.785156 13.195312 -7.953125 13.167969 -7.726562 C 13.140625 -7.644531 13.140625 -7.589844 13.167969 -7.5625 C 13.222656 -7.503906 13.085938 -7.03125 13.195312 -7.058594 C 13.308594 -7.085938 13.113281 -6.976562 13.167969 -6.945312 C 13.167969 -6.945312 13.113281 -5.636719 13.167969 -5.636719 C 13.308594 -5.664062 13.140625 -5.636719 13.140625 -5.550781 C 13.140625 -5.414062 13.085938 -5.328125 13.140625 -5.328125 C 13.28125 -5.328125 13.03125 -5.1875 13.167969 -5.1875 C 13.222656 -5.1875 13.195312 -5.132812 13.140625 -5.160156 C 13.03125 -5.21875 13.363281 -4.992188 13.222656 -4.992188 C 13.140625 -4.992188 13.390625 -3.402344 13.476562 -3.320312 C 13.53125 -3.238281 13.390625 -3.238281 13.503906 -3.125 C 13.558594 -3.042969 13.558594 -2.761719 13.585938 -2.621094 C 13.78125 -1.980469 14.535156 0.613281 14.980469 0.335938 Z M 14.980469 0.335938 "/></g></g></g></svg>